<svg xmlns="http://www.w3.org/2000/svg" style="display: none;">
  <!-- Generic fallback icon -->
  <symbol id="icon-generic" viewBox="0 0 24 24">
    <circle cx="12" cy="12" r="9" fill="none" stroke="currentColor" stroke-width="2"/>
    <circle cx="12" cy="12" r="2" fill="currentColor"/>
  </symbol>
  
  <!-- Face: simple smiley -->
  <symbol id="icon-face" viewBox="0 0 24 24">
    <circle cx="12" cy="12" r="9" fill="none" stroke="currentColor" stroke-width="2"/>
    <circle cx="9" cy="10" r="1.5" fill="currentColor"/>
    <circle cx="15" cy="10" r="1.5" fill="currentColor"/>
    <path d="M8 14 Q12 17 16 14" fill="none" stroke="currentColor" stroke-width="2" stroke-linecap="round"/>
  </symbol>
  
  <!-- Depth: stacked layers -->
  <symbol id="icon-depth" viewBox="0 0 24 24">
    <rect x="4" y="4" width="12" height="12" fill="none" stroke="currentColor" stroke-width="2"/>
    <rect x="8" y="8" width="12" height="12" fill="none" stroke="currentColor" stroke-width="2"/>
  </symbol>
  
  <!-- Fantasy: sparkles/stars -->
  <symbol id="icon-fantasy" viewBox="0 0 24 24">
    <path d="M12 2 L13 10 L21 11 L13 12 L12 20 L11 12 L3 11 L11 10 Z" fill="currentColor"/>
    <circle cx="18" cy="6" r="1.5" fill="currentColor"/>
    <circle cx="6" cy="18" r="1.5" fill="currentColor"/>
  </symbol>
  
  <!-- Filter: funnel -->
  <symbol id="icon-filter" viewBox="0 0 24 24">
    <path d="M4 4 L20 4 L14 12 L14 20 L10 18 L10 12 Z" fill="none" stroke="currentColor" stroke-width="2" stroke-linejoin="round"/>
  </symbol>
  
  <!-- Gothic: pointed arch window -->
  <symbol id="icon-gothic" viewBox="0 0 24 24">
    <path d="M7 21 L7 10 Q7 4 12 2 Q17 4 17 10 L17 21" fill="none" stroke="currentColor" stroke-width="2" stroke-linejoin="round"/>
    <line x1="7" y1="21" x2="17" y2="21" stroke="currentColor" stroke-width="2"/>
    <path d="M12 7 L12 21" stroke="currentColor" stroke-width="1.2"/>
    <path d="M7 14 L17 14" stroke="currentColor" stroke-width="1.2"/>
  </symbol>
  
  <!-- Hair: flowing curve -->
  <symbol id="icon-hair" viewBox="0 0 24 24">
    <path d="M8 4 Q6 8 8 12 Q10 16 8 20" fill="none" stroke="currentColor" stroke-width="2" stroke-linecap="round"/>
    <path d="M12 3 Q10 8 12 13 Q14 18 12 21" fill="none" stroke="currentColor" stroke-width="2" stroke-linecap="round"/>
    <path d="M16 4 Q14 8 16 12 Q18 16 16 20" fill="none" stroke="currentColor" stroke-width="2" stroke-linecap="round"/>
  </symbol>
  
  <!-- Halloween: bat silhouette -->
  <symbol id="icon-halloween" viewBox="0 0 24 24">
    <path d="M2 13 L5.5 10 L8 13 L10 10 L12 12 L14 10 L16 13 L18.5 10 L22 13 L18.5 15.5 L15.5 14 L12 17 L8.5 14 L5.5 15.5 Z" fill="currentColor"/>
    <path d="M10.5 8.5 L12 7 L13.5 8.5 L12 10 Z" fill="currentColor"/>
  </symbol>
  
  <!-- Lighting: compact brightness sun -->
  <symbol id="icon-lighting" viewBox="0 0 24 24">
    <circle cx="12" cy="12" r="3.5" fill="none" stroke="currentColor" stroke-width="2"/>
    <line x1="12" y1="4" x2="12" y2="6" stroke="currentColor" stroke-width="1.8" stroke-linecap="round"/>
    <line x1="12" y1="18" x2="12" y2="20" stroke="currentColor" stroke-width="1.8" stroke-linecap="round"/>
    <line x1="4" y1="12" x2="6" y2="12" stroke="currentColor" stroke-width="1.8" stroke-linecap="round"/>
    <line x1="18" y1="12" x2="20" y2="12" stroke="currentColor" stroke-width="1.8" stroke-linecap="round"/>
    <line x1="6.2" y1="6.2" x2="7.6" y2="7.6" stroke="currentColor" stroke-width="1.8" stroke-linecap="round"/>
    <line x1="16.4" y1="16.4" x2="17.8" y2="17.8" stroke="currentColor" stroke-width="1.8" stroke-linecap="round"/>
    <line x1="6.2" y1="17.8" x2="7.6" y2="16.4" stroke="currentColor" stroke-width="1.8" stroke-linecap="round"/>
    <line x1="16.4" y1="7.6" x2="17.8" y2="6.2" stroke="currentColor" stroke-width="1.8" stroke-linecap="round"/>
  </symbol>
  
  <!-- Mood: theater masks -->
  <symbol id="icon-mood" viewBox="0 0 24 24">
    <path d="M11 7.5 Q11 6 12.5 6 H15.5 Q17 6 17 7.5 V12 Q17 14.8 14.2 15.8 Q11 14.8 11 12 Z" fill="none" stroke="currentColor" stroke-width="2" stroke-linejoin="round"/>
    <circle cx="12.8" cy="9.6" r="0.9" fill="currentColor"/>
    <circle cx="15.3" cy="9.6" r="0.9" fill="currentColor"/>
    <path d="M12.6 13 Q14 11.9 15.4 13" fill="none" stroke="currentColor" stroke-width="2" stroke-linecap="round"/>
    <path d="M4.8 8.2 Q4.8 6.4 6.6 6.4 H10 Q11.8 6.4 11.8 8.2 V13.1 Q11.8 16.2 8.3 17.4 Q4.8 16.2 4.8 13.1 Z" fill="none" stroke="currentColor" stroke-width="2" stroke-linejoin="round"/>
    <circle cx="6.9" cy="10" r="0.9" fill="currentColor"/>
    <circle cx="9.4" cy="10" r="0.9" fill="currentColor"/>
    <path d="M6.8 13.2 Q8.2 14.4 9.6 13.2" fill="none" stroke="currentColor" stroke-width="2" stroke-linecap="round"/>
  </symbol>
  
  <!-- Punk: lightning bolt -->
  <symbol id="icon-punk" viewBox="0 0 24 24">
    <path d="M13 2 L7 12 L11 12 L9 22 L17 10 L13 10 Z" fill="currentColor"/>
  </symbol>
  
  <!-- Rendering: monitor/frame -->
  <symbol id="icon-rendering" viewBox="0 0 24 24">
    <rect x="3" y="4" width="18" height="12" rx="1" fill="none" stroke="currentColor" stroke-width="2"/>
    <line x1="8" y1="20" x2="16" y2="20" stroke="currentColor" stroke-width="2" stroke-linecap="round"/>
    <line x1="12" y1="16" x2="12" y2="20" stroke="currentColor" stroke-width="2"/>
  </symbol>
  
  <!-- Time of day: clock -->
  <symbol id="icon-timeofday" viewBox="0 0 24 24">
    <circle cx="12" cy="12" r="9" fill="none" stroke="currentColor" stroke-width="2"/>
    <line x1="12" y1="12" x2="12" y2="7" stroke="currentColor" stroke-width="2" stroke-linecap="round"/>
    <line x1="12" y1="12" x2="15" y2="15" stroke="currentColor" stroke-width="2" stroke-linecap="round"/>
  </symbol>
  
  <!-- Camera angles: camera -->
  <symbol id="icon-camera_angles" viewBox="0 0 24 24">
    <rect x="3" y="7" width="18" height="12" rx="2" fill="none" stroke="currentColor" stroke-width="2"/>
    <circle cx="12" cy="13" r="3" fill="none" stroke="currentColor" stroke-width="2"/>
    <rect x="9" y="4" width="6" height="3" fill="currentColor"/>
  </symbol>
  
  <!-- Environment: landscape mountain -->
  <symbol id="icon-environment" viewBox="0 0 24 24">
    <path d="M2 18 L8 8 L12 13 L16 6 L22 18 Z" fill="none" stroke="currentColor" stroke-width="2" stroke-linejoin="round"/>
    <circle cx="7" cy="7" r="2" fill="none" stroke="currentColor" stroke-width="1.5"/>
  </symbol>
  
  <!-- Line art: pen nib -->
  <symbol id="icon-line_art" viewBox="0 0 24 24">
    <path d="M18 2 L6 14 L6 18 L10 18 L22 6 Z" fill="none" stroke="currentColor" stroke-width="2" stroke-linejoin="round"/>
    <line x1="14" y1="6" x2="18" y2="10" stroke="currentColor" stroke-width="2"/>
    <path d="M6 18 L2 22" stroke="currentColor" stroke-width="2" stroke-linecap="round"/>
  </symbol>
  
  <!-- Clothing: t-shirt -->
  <symbol id="icon-clothing" viewBox="0 0 24 24">
    <path d="M8 4 L8 2 Q12 4 12 4 Q12 4 16 2 L16 4 L20 7 L20 11 L17 11 L17 22 L7 22 L7 11 L4 11 L4 7 Z" fill="none" stroke="currentColor" stroke-width="2" stroke-linejoin="round"/>
  </symbol>
  
  <!-- Clothing state: t-shirt with line -->
  <symbol id="icon-clothing_state" viewBox="0 0 24 24">
    <path d="M8 4 L8 2 Q12 4 12 4 Q12 4 16 2 L16 4 L20 7 L20 11 L17 11 L17 22 L7 22 L7 11 L4 11 L4 7 Z" fill="none" stroke="currentColor" stroke-width="2" stroke-linejoin="round"/>
    <line x1="7" y1="13" x2="17" y2="13" stroke="currentColor" stroke-width="1.5"/>
  </symbol>
  
  <!-- Clothing style: hanger -->
  <symbol id="icon-clothing_style" viewBox="0 0 24 24">
    <circle cx="12" cy="5" r="2" fill="none" stroke="currentColor" stroke-width="2"/>
    <path d="M12 7 L12 11 L5 18 L19 18 Z" fill="none" stroke="currentColor" stroke-width="2" stroke-linejoin="round"/>
    <line x1="3" y1="18" x2="21" y2="18" stroke="currentColor" stroke-width="2" stroke-linecap="round"/>
  </symbol>
  
  <!-- Atmosphere: cloud -->
  <symbol id="icon-atmosphere" viewBox="0 0 24 24">
    <path d="M6 14 Q6 11 8 9 Q9 7 11 7 Q12 5 14 5 Q17 5 18 8 Q20 8 21 10 Q22 12 20 14 Z" fill="none" stroke="currentColor" stroke-width="2" stroke-linejoin="round"/>
  </symbol>
  
  <!-- All in one: magic wand -->
  <symbol id="icon-all_in_one" viewBox="0 0 24 24">
    <line x1="4" y1="20" x2="14" y2="10" stroke="currentColor" stroke-width="2" stroke-linecap="round"/>
    <path d="M18 6 L19 4 L20 6 L22 7 L20 8 L19 10 L18 8 L16 7 Z" fill="currentColor"/>
    <circle cx="8" cy="4" r="1" fill="currentColor"/>
    <circle cx="4" cy="8" r="1" fill="currentColor"/>
    <circle cx="20" cy="14" r="1" fill="currentColor"/>
  </symbol>
  
  <!-- Breast state: heart (neutral badge) -->
  <symbol id="icon-breast_state" viewBox="0 0 24 24">
    <path d="M12 21 C8 18 4 14 4 10 Q4 6 7 6 Q10 6 12 9 Q14 6 17 6 Q20 6 20 10 C20 14 16 18 12 21 Z" fill="none" stroke="currentColor" stroke-width="2" stroke-linejoin="round"/>
  </symbol>
  
  <!-- Aesthetic: palette -->
  <symbol id="icon-aesthetic" viewBox="0 0 24 24">
    <circle cx="12" cy="12" r="9" fill="none" stroke="currentColor" stroke-width="2"/>
    <circle cx="9" cy="9" r="1.5" fill="currentColor"/>
    <circle cx="15" cy="9" r="1.5" fill="currentColor"/>
    <circle cx="9" cy="15" r="1.5" fill="currentColor"/>
    <ellipse cx="15" cy="15" rx="2" ry="1" fill="currentColor"/>
  </symbol>
  
  <!-- Anime: play/frame icon -->
  <symbol id="icon-anime" viewBox="0 0 24 24">
    <rect x="3" y="3" width="18" height="18" rx="2" fill="none" stroke="currentColor" stroke-width="2"/>
    <path d="M10 8 L16 12 L10 16 Z" fill="currentColor"/>
  </symbol>
</svg>
