<svg xmlns="http://www.w3.org/2000/svg" xml:space="preserve" xmlns:xlink="http://www.w3.org/1999/xlink" style="max-width: 100%;height: auto;" width="1072.5" height="1251.25" viewBox="0 0 1072.5 1251.25">
<rect width="992.95625" height="992.95625" fill="#ffffff" x="39.6875" y="39.6875"  />
<g fill="#ff4d4d" transform="scale(44.6875)"> <path d="M22.7,0H1.3C0.6,0,0,0.6,0,1.3v25.3C0,27.4,0.6,28,1.3,28h21.4c0.7,0,1.3-0.6,1.3-1.3V1.3C24,0.6,23.4,0,22.7,0 z M23,22c0,0.6-0.5,1-1,1H2c-0.6,0-1-0.5-1-1V2c0-0.6,0.5-1,1-1h20c0.6,0,1,0.5,1,1V22z"/></g>
<g  fill="#000000">
<g transform="translate(315.25,107.25) scale(4.4633333333333)"><circle cx="3" cy="3" r="3"/></g>
<g transform="translate(341.25,107.25) scale(4.4633333333333)"><circle cx="3" cy="3" r="3"/></g>
<g transform="translate(367.25,107.25) scale(4.4633333333333)"><circle cx="3" cy="3" r="3"/></g>
<g transform="translate(445.25,107.25) scale(4.4633333333333)"><circle cx="3" cy="3" r="3"/></g>
<g transform="translate(601.25,107.25) scale(4.4633333333333)"><circle cx="3" cy="3" r="3"/></g>
<g transform="translate(653.25,107.25) scale(4.4633333333333)"><circle cx="3" cy="3" r="3"/></g>
<g transform="translate(705.25,107.25) scale(4.4633333333333)"><circle cx="3" cy="3" r="3"/></g>
<g transform="translate(731.25,107.25) scale(4.4633333333333)"><circle cx="3" cy="3" r="3"/></g>
<g transform="translate(315.25,133.25) scale(4.4633333333333)"><circle cx="3" cy="3" r="3"/></g>
<g transform="translate(341.25,133.25) scale(4.4633333333333)"><circle cx="3" cy="3" r="3"/></g>
<g transform="translate(367.25,133.25) scale(4.4633333333333)"><circle cx="3" cy="3" r="3"/></g>
<g transform="translate(419.25,133.25) scale(4.4633333333333)"><circle cx="3" cy="3" r="3"/></g>
<g transform="translate(471.25,133.25) scale(4.4633333333333)"><circle cx="3" cy="3" r="3"/></g>
<g transform="translate(523.25,133.25) scale(4.4633333333333)"><circle cx="3" cy="3" r="3"/></g>
<g transform="translate(601.25,133.25) scale(4.4633333333333)"><circle cx="3" cy="3" r="3"/></g>
<g transform="translate(627.25,133.25) scale(4.4633333333333)"><circle cx="3" cy="3" r="3"/></g>
<g transform="translate(731.25,133.25) scale(4.4633333333333)"><circle cx="3" cy="3" r="3"/></g>
<g transform="translate(315.25,159.25) scale(4.4633333333333)"><circle cx="3" cy="3" r="3"/></g>
<g transform="translate(341.25,159.25) scale(4.4633333333333)"><circle cx="3" cy="3" r="3"/></g>
<g transform="translate(367.25,159.25) scale(4.4633333333333)"><circle cx="3" cy="3" r="3"/></g>
<g transform="translate(393.25,159.25) scale(4.4633333333333)"><circle cx="3" cy="3" r="3"/></g>
<g transform="translate(445.25,159.25) scale(4.4633333333333)"><circle cx="3" cy="3" r="3"/></g>
<g transform="translate(523.25,159.25) scale(4.4633333333333)"><circle cx="3" cy="3" r="3"/></g>
<g transform="translate(653.25,159.25) scale(4.4633333333333)"><circle cx="3" cy="3" r="3"/></g>
<g transform="translate(679.25,159.25) scale(4.4633333333333)"><circle cx="3" cy="3" r="3"/></g>
<g transform="translate(705.25,159.25) scale(4.4633333333333)"><circle cx="3" cy="3" r="3"/></g>
<g transform="translate(731.25,159.25) scale(4.4633333333333)"><circle cx="3" cy="3" r="3"/></g>
<g transform="translate(393.25,185.25) scale(4.4633333333333)"><circle cx="3" cy="3" r="3"/></g>
<g transform="translate(419.25,185.25) scale(4.4633333333333)"><circle cx="3" cy="3" r="3"/></g>
<g transform="translate(497.25,185.25) scale(4.4633333333333)"><circle cx="3" cy="3" r="3"/></g>
<g transform="translate(523.25,185.25) scale(4.4633333333333)"><circle cx="3" cy="3" r="3"/></g>
<g transform="translate(601.25,185.25) scale(4.4633333333333)"><circle cx="3" cy="3" r="3"/></g>
<g transform="translate(627.25,185.25) scale(4.4633333333333)"><circle cx="3" cy="3" r="3"/></g>
<g transform="translate(679.25,185.25) scale(4.4633333333333)"><circle cx="3" cy="3" r="3"/></g>
<g transform="translate(705.25,185.25) scale(4.4633333333333)"><circle cx="3" cy="3" r="3"/></g>
<g transform="translate(731.25,185.25) scale(4.4633333333333)"><circle cx="3" cy="3" r="3"/></g>
<g transform="translate(575.25,211.25) scale(4.4633333333333)"><circle cx="3" cy="3" r="3"/></g>
<g transform="translate(601.25,211.25) scale(4.4633333333333)"><circle cx="3" cy="3" r="3"/></g>
<g transform="translate(653.25,211.25) scale(4.4633333333333)"><circle cx="3" cy="3" r="3"/></g>
<g transform="translate(315.25,237.25) scale(4.4633333333333)"><circle cx="3" cy="3" r="3"/></g>
<g transform="translate(367.25,237.25) scale(4.4633333333333)"><circle cx="3" cy="3" r="3"/></g>
<g transform="translate(419.25,237.25) scale(4.4633333333333)"><circle cx="3" cy="3" r="3"/></g>
<g transform="translate(445.25,237.25) scale(4.4633333333333)"><circle cx="3" cy="3" r="3"/></g>
<g transform="translate(471.25,237.25) scale(4.4633333333333)"><circle cx="3" cy="3" r="3"/></g>
<g transform="translate(497.25,237.25) scale(4.4633333333333)"><circle cx="3" cy="3" r="3"/></g>
<g transform="translate(627.25,237.25) scale(4.4633333333333)"><circle cx="3" cy="3" r="3"/></g>
<g transform="translate(705.25,237.25) scale(4.4633333333333)"><circle cx="3" cy="3" r="3"/></g>
<g transform="translate(731.25,237.25) scale(4.4633333333333)"><circle cx="3" cy="3" r="3"/></g>
<g transform="translate(315.25,263.25) scale(4.4633333333333)"><circle cx="3" cy="3" r="3"/></g>
<g transform="translate(367.25,263.25) scale(4.4633333333333)"><circle cx="3" cy="3" r="3"/></g>
<g transform="translate(419.25,263.25) scale(4.4633333333333)"><circle cx="3" cy="3" r="3"/></g>
<g transform="translate(471.25,263.25) scale(4.4633333333333)"><circle cx="3" cy="3" r="3"/></g>
<g transform="translate(523.25,263.25) scale(4.4633333333333)"><circle cx="3" cy="3" r="3"/></g>
<g transform="translate(575.25,263.25) scale(4.4633333333333)"><circle cx="3" cy="3" r="3"/></g>
<g transform="translate(627.25,263.25) scale(4.4633333333333)"><circle cx="3" cy="3" r="3"/></g>
<g transform="translate(679.25,263.25) scale(4.4633333333333)"><circle cx="3" cy="3" r="3"/></g>
<g transform="translate(731.25,263.25) scale(4.4633333333333)"><circle cx="3" cy="3" r="3"/></g>
<g transform="translate(315.25,289.25) scale(4.4633333333333)"><circle cx="3" cy="3" r="3"/></g>
<g transform="translate(367.25,289.25) scale(4.4633333333333)"><circle cx="3" cy="3" r="3"/></g>
<g transform="translate(393.25,289.25) scale(4.4633333333333)"><circle cx="3" cy="3" r="3"/></g>
<g transform="translate(419.25,289.25) scale(4.4633333333333)"><circle cx="3" cy="3" r="3"/></g>
<g transform="translate(445.25,289.25) scale(4.4633333333333)"><circle cx="3" cy="3" r="3"/></g>
<g transform="translate(471.25,289.25) scale(4.4633333333333)"><circle cx="3" cy="3" r="3"/></g>
<g transform="translate(523.25,289.25) scale(4.4633333333333)"><circle cx="3" cy="3" r="3"/></g>
<g transform="translate(549.25,289.25) scale(4.4633333333333)"><circle cx="3" cy="3" r="3"/></g>
<g transform="translate(653.25,289.25) scale(4.4633333333333)"><circle cx="3" cy="3" r="3"/></g>
<g transform="translate(679.25,289.25) scale(4.4633333333333)"><circle cx="3" cy="3" r="3"/></g>
<g transform="translate(705.25,289.25) scale(4.4633333333333)"><circle cx="3" cy="3" r="3"/></g>
<g transform="translate(159.25,315.25) scale(4.4633333333333)"><circle cx="3" cy="3" r="3"/></g>
<g transform="translate(185.25,315.25) scale(4.4633333333333)"><circle cx="3" cy="3" r="3"/></g>
<g transform="translate(211.25,315.25) scale(4.4633333333333)"><circle cx="3" cy="3" r="3"/></g>
<g transform="translate(263.25,315.25) scale(4.4633333333333)"><circle cx="3" cy="3" r="3"/></g>
<g transform="translate(315.25,315.25) scale(4.4633333333333)"><circle cx="3" cy="3" r="3"/></g>
<g transform="translate(341.25,315.25) scale(4.4633333333333)"><circle cx="3" cy="3" r="3"/></g>
<g transform="translate(367.25,315.25) scale(4.4633333333333)"><circle cx="3" cy="3" r="3"/></g>
<g transform="translate(497.25,315.25) scale(4.4633333333333)"><circle cx="3" cy="3" r="3"/></g>
<g transform="translate(549.25,315.25) scale(4.4633333333333)"><circle cx="3" cy="3" r="3"/></g>
<g transform="translate(705.25,315.25) scale(4.4633333333333)"><circle cx="3" cy="3" r="3"/></g>
<g transform="translate(757.25,315.25) scale(4.4633333333333)"><circle cx="3" cy="3" r="3"/></g>
<g transform="translate(783.25,315.25) scale(4.4633333333333)"><circle cx="3" cy="3" r="3"/></g>
<g transform="translate(809.25,315.25) scale(4.4633333333333)"><circle cx="3" cy="3" r="3"/></g>
<g transform="translate(887.25,315.25) scale(4.4633333333333)"><circle cx="3" cy="3" r="3"/></g>
<g transform="translate(913.25,315.25) scale(4.4633333333333)"><circle cx="3" cy="3" r="3"/></g>
<g transform="translate(939.25,315.25) scale(4.4633333333333)"><circle cx="3" cy="3" r="3"/></g>
<g transform="translate(107.25,341.25) scale(4.4633333333333)"><circle cx="3" cy="3" r="3"/></g>
<g transform="translate(133.25,341.25) scale(4.4633333333333)"><circle cx="3" cy="3" r="3"/></g>
<g transform="translate(159.25,341.25) scale(4.4633333333333)"><circle cx="3" cy="3" r="3"/></g>
<g transform="translate(185.25,341.25) scale(4.4633333333333)"><circle cx="3" cy="3" r="3"/></g>
<g transform="translate(211.25,341.25) scale(4.4633333333333)"><circle cx="3" cy="3" r="3"/></g>
<g transform="translate(315.25,341.25) scale(4.4633333333333)"><circle cx="3" cy="3" r="3"/></g>
<g transform="translate(341.25,341.25) scale(4.4633333333333)"><circle cx="3" cy="3" r="3"/></g>
<g transform="translate(445.25,341.25) scale(4.4633333333333)"><circle cx="3" cy="3" r="3"/></g>
<g transform="translate(497.25,341.25) scale(4.4633333333333)"><circle cx="3" cy="3" r="3"/></g>
<g transform="translate(575.25,341.25) scale(4.4633333333333)"><circle cx="3" cy="3" r="3"/></g>
<g transform="translate(627.25,341.25) scale(4.4633333333333)"><circle cx="3" cy="3" r="3"/></g>
<g transform="translate(653.25,341.25) scale(4.4633333333333)"><circle cx="3" cy="3" r="3"/></g>
<g transform="translate(679.25,341.25) scale(4.4633333333333)"><circle cx="3" cy="3" r="3"/></g>
<g transform="translate(731.25,341.25) scale(4.4633333333333)"><circle cx="3" cy="3" r="3"/></g>
<g transform="translate(757.25,341.25) scale(4.4633333333333)"><circle cx="3" cy="3" r="3"/></g>
<g transform="translate(783.25,341.25) scale(4.4633333333333)"><circle cx="3" cy="3" r="3"/></g>
<g transform="translate(887.25,341.25) scale(4.4633333333333)"><circle cx="3" cy="3" r="3"/></g>
<g transform="translate(939.25,341.25) scale(4.4633333333333)"><circle cx="3" cy="3" r="3"/></g>
<g transform="translate(133.25,367.25) scale(4.4633333333333)"><circle cx="3" cy="3" r="3"/></g>
<g transform="translate(263.25,367.25) scale(4.4633333333333)"><circle cx="3" cy="3" r="3"/></g>
<g transform="translate(289.25,367.25) scale(4.4633333333333)"><circle cx="3" cy="3" r="3"/></g>
<g transform="translate(341.25,367.25) scale(4.4633333333333)"><circle cx="3" cy="3" r="3"/></g>
<g transform="translate(367.25,367.25) scale(4.4633333333333)"><circle cx="3" cy="3" r="3"/></g>
<g transform="translate(393.25,367.25) scale(4.4633333333333)"><circle cx="3" cy="3" r="3"/></g>
<g transform="translate(445.25,367.25) scale(4.4633333333333)"><circle cx="3" cy="3" r="3"/></g>
<g transform="translate(549.25,367.25) scale(4.4633333333333)"><circle cx="3" cy="3" r="3"/></g>
<g transform="translate(601.25,367.25) scale(4.4633333333333)"><circle cx="3" cy="3" r="3"/></g>
<g transform="translate(653.25,367.25) scale(4.4633333333333)"><circle cx="3" cy="3" r="3"/></g>
<g transform="translate(705.25,367.25) scale(4.4633333333333)"><circle cx="3" cy="3" r="3"/></g>
<g transform="translate(731.25,367.25) scale(4.4633333333333)"><circle cx="3" cy="3" r="3"/></g>
<g transform="translate(757.25,367.25) scale(4.4633333333333)"><circle cx="3" cy="3" r="3"/></g>
<g transform="translate(809.25,367.25) scale(4.4633333333333)"><circle cx="3" cy="3" r="3"/></g>
<g transform="translate(887.25,367.25) scale(4.4633333333333)"><circle cx="3" cy="3" r="3"/></g>
<g transform="translate(913.25,367.25) scale(4.4633333333333)"><circle cx="3" cy="3" r="3"/></g>
<g transform="translate(107.25,393.25) scale(4.4633333333333)"><circle cx="3" cy="3" r="3"/></g>
<g transform="translate(185.25,393.25) scale(4.4633333333333)"><circle cx="3" cy="3" r="3"/></g>
<g transform="translate(211.25,393.25) scale(4.4633333333333)"><circle cx="3" cy="3" r="3"/></g>
<g transform="translate(289.25,393.25) scale(4.4633333333333)"><circle cx="3" cy="3" r="3"/></g>
<g transform="translate(367.25,393.25) scale(4.4633333333333)"><circle cx="3" cy="3" r="3"/></g>
<g transform="translate(419.25,393.25) scale(4.4633333333333)"><circle cx="3" cy="3" r="3"/></g>
<g transform="translate(445.25,393.25) scale(4.4633333333333)"><circle cx="3" cy="3" r="3"/></g>
<g transform="translate(471.25,393.25) scale(4.4633333333333)"><circle cx="3" cy="3" r="3"/></g>
<g transform="translate(575.25,393.25) scale(4.4633333333333)"><circle cx="3" cy="3" r="3"/></g>
<g transform="translate(601.25,393.25) scale(4.4633333333333)"><circle cx="3" cy="3" r="3"/></g>
<g transform="translate(653.25,393.25) scale(4.4633333333333)"><circle cx="3" cy="3" r="3"/></g>
<g transform="translate(679.25,393.25) scale(4.4633333333333)"><circle cx="3" cy="3" r="3"/></g>
<g transform="translate(731.25,393.25) scale(4.4633333333333)"><circle cx="3" cy="3" r="3"/></g>
<g transform="translate(783.25,393.25) scale(4.4633333333333)"><circle cx="3" cy="3" r="3"/></g>
<g transform="translate(861.25,393.25) scale(4.4633333333333)"><circle cx="3" cy="3" r="3"/></g>
<g transform="translate(887.25,393.25) scale(4.4633333333333)"><circle cx="3" cy="3" r="3"/></g>
<g transform="translate(913.25,393.25) scale(4.4633333333333)"><circle cx="3" cy="3" r="3"/></g>
<g transform="translate(939.25,393.25) scale(4.4633333333333)"><circle cx="3" cy="3" r="3"/></g>
<g transform="translate(133.25,419.25) scale(4.4633333333333)"><circle cx="3" cy="3" r="3"/></g>
<g transform="translate(237.25,419.25) scale(4.4633333333333)"><circle cx="3" cy="3" r="3"/></g>
<g transform="translate(263.25,419.25) scale(4.4633333333333)"><circle cx="3" cy="3" r="3"/></g>
<g transform="translate(315.25,419.25) scale(4.4633333333333)"><circle cx="3" cy="3" r="3"/></g>
<g transform="translate(471.25,419.25) scale(4.4633333333333)"><circle cx="3" cy="3" r="3"/></g>
<g transform="translate(497.25,419.25) scale(4.4633333333333)"><circle cx="3" cy="3" r="3"/></g>
<g transform="translate(523.25,419.25) scale(4.4633333333333)"><circle cx="3" cy="3" r="3"/></g>
<g transform="translate(653.25,419.25) scale(4.4633333333333)"><circle cx="3" cy="3" r="3"/></g>
<g transform="translate(731.25,419.25) scale(4.4633333333333)"><circle cx="3" cy="3" r="3"/></g>
<g transform="translate(757.25,419.25) scale(4.4633333333333)"><circle cx="3" cy="3" r="3"/></g>
<g transform="translate(861.25,419.25) scale(4.4633333333333)"><circle cx="3" cy="3" r="3"/></g>
<g transform="translate(887.25,419.25) scale(4.4633333333333)"><circle cx="3" cy="3" r="3"/></g>
<g transform="translate(939.25,419.25) scale(4.4633333333333)"><circle cx="3" cy="3" r="3"/></g>
<g transform="translate(107.25,445.25) scale(4.4633333333333)"><circle cx="3" cy="3" r="3"/></g>
<g transform="translate(159.25,445.25) scale(4.4633333333333)"><circle cx="3" cy="3" r="3"/></g>
<g transform="translate(237.25,445.25) scale(4.4633333333333)"><circle cx="3" cy="3" r="3"/></g>
<g transform="translate(315.25,445.25) scale(4.4633333333333)"><circle cx="3" cy="3" r="3"/></g>
<g transform="translate(471.25,445.25) scale(4.4633333333333)"><circle cx="3" cy="3" r="3"/></g>
<g transform="translate(549.25,445.25) scale(4.4633333333333)"><circle cx="3" cy="3" r="3"/></g>
<g transform="translate(575.25,445.25) scale(4.4633333333333)"><circle cx="3" cy="3" r="3"/></g>
<g transform="translate(627.25,445.25) scale(4.4633333333333)"><circle cx="3" cy="3" r="3"/></g>
<g transform="translate(679.25,445.25) scale(4.4633333333333)"><circle cx="3" cy="3" r="3"/></g>
<g transform="translate(705.25,445.25) scale(4.4633333333333)"><circle cx="3" cy="3" r="3"/></g>
<g transform="translate(783.25,445.25) scale(4.4633333333333)"><circle cx="3" cy="3" r="3"/></g>
<g transform="translate(809.25,445.25) scale(4.4633333333333)"><circle cx="3" cy="3" r="3"/></g>
<g transform="translate(887.25,445.25) scale(4.4633333333333)"><circle cx="3" cy="3" r="3"/></g>
<g transform="translate(939.25,445.25) scale(4.4633333333333)"><circle cx="3" cy="3" r="3"/></g>
<g transform="translate(107.25,471.25) scale(4.4633333333333)"><circle cx="3" cy="3" r="3"/></g>
<g transform="translate(211.25,471.25) scale(4.4633333333333)"><circle cx="3" cy="3" r="3"/></g>
<g transform="translate(237.25,471.25) scale(4.4633333333333)"><circle cx="3" cy="3" r="3"/></g>
<g transform="translate(263.25,471.25) scale(4.4633333333333)"><circle cx="3" cy="3" r="3"/></g>
<g transform="translate(289.25,471.25) scale(4.4633333333333)"><circle cx="3" cy="3" r="3"/></g>
<g transform="translate(367.25,471.25) scale(4.4633333333333)"><circle cx="3" cy="3" r="3"/></g>
<g transform="translate(393.25,471.25) scale(4.4633333333333)"><circle cx="3" cy="3" r="3"/></g>
<g transform="translate(419.25,471.25) scale(4.4633333333333)"><circle cx="3" cy="3" r="3"/></g>
<g transform="translate(471.25,471.25) scale(4.4633333333333)"><circle cx="3" cy="3" r="3"/></g>
<g transform="translate(523.25,471.25) scale(4.4633333333333)"><circle cx="3" cy="3" r="3"/></g>
<g transform="translate(549.25,471.25) scale(4.4633333333333)"><circle cx="3" cy="3" r="3"/></g>
<g transform="translate(575.25,471.25) scale(4.4633333333333)"><circle cx="3" cy="3" r="3"/></g>
<g transform="translate(601.25,471.25) scale(4.4633333333333)"><circle cx="3" cy="3" r="3"/></g>
<g transform="translate(679.25,471.25) scale(4.4633333333333)"><circle cx="3" cy="3" r="3"/></g>
<g transform="translate(731.25,471.25) scale(4.4633333333333)"><circle cx="3" cy="3" r="3"/></g>
<g transform="translate(757.25,471.25) scale(4.4633333333333)"><circle cx="3" cy="3" r="3"/></g>
<g transform="translate(887.25,471.25) scale(4.4633333333333)"><circle cx="3" cy="3" r="3"/></g>
<g transform="translate(913.25,471.25) scale(4.4633333333333)"><circle cx="3" cy="3" r="3"/></g>
<g transform="translate(159.25,497.25) scale(4.4633333333333)"><circle cx="3" cy="3" r="3"/></g>
<g transform="translate(185.25,497.25) scale(4.4633333333333)"><circle cx="3" cy="3" r="3"/></g>
<g transform="translate(237.25,497.25) scale(4.4633333333333)"><circle cx="3" cy="3" r="3"/></g>
<g transform="translate(289.25,497.25) scale(4.4633333333333)"><circle cx="3" cy="3" r="3"/></g>
<g transform="translate(315.25,497.25) scale(4.4633333333333)"><circle cx="3" cy="3" r="3"/></g>
<g transform="translate(367.25,497.25) scale(4.4633333333333)"><circle cx="3" cy="3" r="3"/></g>
<g transform="translate(549.25,497.25) scale(4.4633333333333)"><circle cx="3" cy="3" r="3"/></g>
<g transform="translate(575.25,497.25) scale(4.4633333333333)"><circle cx="3" cy="3" r="3"/></g>
<g transform="translate(601.25,497.25) scale(4.4633333333333)"><circle cx="3" cy="3" r="3"/></g>
<g transform="translate(627.25,497.25) scale(4.4633333333333)"><circle cx="3" cy="3" r="3"/></g>
<g transform="translate(653.25,497.25) scale(4.4633333333333)"><circle cx="3" cy="3" r="3"/></g>
<g transform="translate(679.25,497.25) scale(4.4633333333333)"><circle cx="3" cy="3" r="3"/></g>
<g transform="translate(705.25,497.25) scale(4.4633333333333)"><circle cx="3" cy="3" r="3"/></g>
<g transform="translate(757.25,497.25) scale(4.4633333333333)"><circle cx="3" cy="3" r="3"/></g>
<g transform="translate(783.25,497.25) scale(4.4633333333333)"><circle cx="3" cy="3" r="3"/></g>
<g transform="translate(809.25,497.25) scale(4.4633333333333)"><circle cx="3" cy="3" r="3"/></g>
<g transform="translate(887.25,497.25) scale(4.4633333333333)"><circle cx="3" cy="3" r="3"/></g>
<g transform="translate(913.25,497.25) scale(4.4633333333333)"><circle cx="3" cy="3" r="3"/></g>
<g transform="translate(185.25,523.25) scale(4.4633333333333)"><circle cx="3" cy="3" r="3"/></g>
<g transform="translate(263.25,523.25) scale(4.4633333333333)"><circle cx="3" cy="3" r="3"/></g>
<g transform="translate(289.25,523.25) scale(4.4633333333333)"><circle cx="3" cy="3" r="3"/></g>
<g transform="translate(393.25,523.25) scale(4.4633333333333)"><circle cx="3" cy="3" r="3"/></g>
<g transform="translate(445.25,523.25) scale(4.4633333333333)"><circle cx="3" cy="3" r="3"/></g>
<g transform="translate(471.25,523.25) scale(4.4633333333333)"><circle cx="3" cy="3" r="3"/></g>
<g transform="translate(497.25,523.25) scale(4.4633333333333)"><circle cx="3" cy="3" r="3"/></g>
<g transform="translate(523.25,523.25) scale(4.4633333333333)"><circle cx="3" cy="3" r="3"/></g>
<g transform="translate(549.25,523.25) scale(4.4633333333333)"><circle cx="3" cy="3" r="3"/></g>
<g transform="translate(601.25,523.25) scale(4.4633333333333)"><circle cx="3" cy="3" r="3"/></g>
<g transform="translate(705.25,523.25) scale(4.4633333333333)"><circle cx="3" cy="3" r="3"/></g>
<g transform="translate(757.25,523.25) scale(4.4633333333333)"><circle cx="3" cy="3" r="3"/></g>
<g transform="translate(809.25,523.25) scale(4.4633333333333)"><circle cx="3" cy="3" r="3"/></g>
<g transform="translate(887.25,523.25) scale(4.4633333333333)"><circle cx="3" cy="3" r="3"/></g>
<g transform="translate(159.25,549.25) scale(4.4633333333333)"><circle cx="3" cy="3" r="3"/></g>
<g transform="translate(211.25,549.25) scale(4.4633333333333)"><circle cx="3" cy="3" r="3"/></g>
<g transform="translate(237.25,549.25) scale(4.4633333333333)"><circle cx="3" cy="3" r="3"/></g>
<g transform="translate(289.25,549.25) scale(4.4633333333333)"><circle cx="3" cy="3" r="3"/></g>
<g transform="translate(341.25,549.25) scale(4.4633333333333)"><circle cx="3" cy="3" r="3"/></g>
<g transform="translate(393.25,549.25) scale(4.4633333333333)"><circle cx="3" cy="3" r="3"/></g>
<g transform="translate(445.25,549.25) scale(4.4633333333333)"><circle cx="3" cy="3" r="3"/></g>
<g transform="translate(523.25,549.25) scale(4.4633333333333)"><circle cx="3" cy="3" r="3"/></g>
<g transform="translate(705.25,549.25) scale(4.4633333333333)"><circle cx="3" cy="3" r="3"/></g>
<g transform="translate(731.25,549.25) scale(4.4633333333333)"><circle cx="3" cy="3" r="3"/></g>
<g transform="translate(809.25,549.25) scale(4.4633333333333)"><circle cx="3" cy="3" r="3"/></g>
<g transform="translate(107.25,575.25) scale(4.4633333333333)"><circle cx="3" cy="3" r="3"/></g>
<g transform="translate(263.25,575.25) scale(4.4633333333333)"><circle cx="3" cy="3" r="3"/></g>
<g transform="translate(289.25,575.25) scale(4.4633333333333)"><circle cx="3" cy="3" r="3"/></g>
<g transform="translate(419.25,575.25) scale(4.4633333333333)"><circle cx="3" cy="3" r="3"/></g>
<g transform="translate(523.25,575.25) scale(4.4633333333333)"><circle cx="3" cy="3" r="3"/></g>
<g transform="translate(627.25,575.25) scale(4.4633333333333)"><circle cx="3" cy="3" r="3"/></g>
<g transform="translate(679.25,575.25) scale(4.4633333333333)"><circle cx="3" cy="3" r="3"/></g>
<g transform="translate(757.25,575.25) scale(4.4633333333333)"><circle cx="3" cy="3" r="3"/></g>
<g transform="translate(783.25,575.25) scale(4.4633333333333)"><circle cx="3" cy="3" r="3"/></g>
<g transform="translate(809.25,575.25) scale(4.4633333333333)"><circle cx="3" cy="3" r="3"/></g>
<g transform="translate(887.25,575.25) scale(4.4633333333333)"><circle cx="3" cy="3" r="3"/></g>
<g transform="translate(939.25,575.25) scale(4.4633333333333)"><circle cx="3" cy="3" r="3"/></g>
<g transform="translate(133.25,601.25) scale(4.4633333333333)"><circle cx="3" cy="3" r="3"/></g>
<g transform="translate(159.25,601.25) scale(4.4633333333333)"><circle cx="3" cy="3" r="3"/></g>
<g transform="translate(185.25,601.25) scale(4.4633333333333)"><circle cx="3" cy="3" r="3"/></g>
<g transform="translate(289.25,601.25) scale(4.4633333333333)"><circle cx="3" cy="3" r="3"/></g>
<g transform="translate(315.25,601.25) scale(4.4633333333333)"><circle cx="3" cy="3" r="3"/></g>
<g transform="translate(341.25,601.25) scale(4.4633333333333)"><circle cx="3" cy="3" r="3"/></g>
<g transform="translate(367.25,601.25) scale(4.4633333333333)"><circle cx="3" cy="3" r="3"/></g>
<g transform="translate(393.25,601.25) scale(4.4633333333333)"><circle cx="3" cy="3" r="3"/></g>
<g transform="translate(471.25,601.25) scale(4.4633333333333)"><circle cx="3" cy="3" r="3"/></g>
<g transform="translate(523.25,601.25) scale(4.4633333333333)"><circle cx="3" cy="3" r="3"/></g>
<g transform="translate(601.25,601.25) scale(4.4633333333333)"><circle cx="3" cy="3" r="3"/></g>
<g transform="translate(627.25,601.25) scale(4.4633333333333)"><circle cx="3" cy="3" r="3"/></g>
<g transform="translate(653.25,601.25) scale(4.4633333333333)"><circle cx="3" cy="3" r="3"/></g>
<g transform="translate(679.25,601.25) scale(4.4633333333333)"><circle cx="3" cy="3" r="3"/></g>
<g transform="translate(705.25,601.25) scale(4.4633333333333)"><circle cx="3" cy="3" r="3"/></g>
<g transform="translate(731.25,601.25) scale(4.4633333333333)"><circle cx="3" cy="3" r="3"/></g>
<g transform="translate(783.25,601.25) scale(4.4633333333333)"><circle cx="3" cy="3" r="3"/></g>
<g transform="translate(835.25,601.25) scale(4.4633333333333)"><circle cx="3" cy="3" r="3"/></g>
<g transform="translate(861.25,601.25) scale(4.4633333333333)"><circle cx="3" cy="3" r="3"/></g>
<g transform="translate(887.25,601.25) scale(4.4633333333333)"><circle cx="3" cy="3" r="3"/></g>
<g transform="translate(913.25,601.25) scale(4.4633333333333)"><circle cx="3" cy="3" r="3"/></g>
<g transform="translate(211.25,627.25) scale(4.4633333333333)"><circle cx="3" cy="3" r="3"/></g>
<g transform="translate(263.25,627.25) scale(4.4633333333333)"><circle cx="3" cy="3" r="3"/></g>
<g transform="translate(367.25,627.25) scale(4.4633333333333)"><circle cx="3" cy="3" r="3"/></g>
<g transform="translate(419.25,627.25) scale(4.4633333333333)"><circle cx="3" cy="3" r="3"/></g>
<g transform="translate(471.25,627.25) scale(4.4633333333333)"><circle cx="3" cy="3" r="3"/></g>
<g transform="translate(549.25,627.25) scale(4.4633333333333)"><circle cx="3" cy="3" r="3"/></g>
<g transform="translate(601.25,627.25) scale(4.4633333333333)"><circle cx="3" cy="3" r="3"/></g>
<g transform="translate(627.25,627.25) scale(4.4633333333333)"><circle cx="3" cy="3" r="3"/></g>
<g transform="translate(679.25,627.25) scale(4.4633333333333)"><circle cx="3" cy="3" r="3"/></g>
<g transform="translate(757.25,627.25) scale(4.4633333333333)"><circle cx="3" cy="3" r="3"/></g>
<g transform="translate(783.25,627.25) scale(4.4633333333333)"><circle cx="3" cy="3" r="3"/></g>
<g transform="translate(809.25,627.25) scale(4.4633333333333)"><circle cx="3" cy="3" r="3"/></g>
<g transform="translate(835.25,627.25) scale(4.4633333333333)"><circle cx="3" cy="3" r="3"/></g>
<g transform="translate(861.25,627.25) scale(4.4633333333333)"><circle cx="3" cy="3" r="3"/></g>
<g transform="translate(913.25,627.25) scale(4.4633333333333)"><circle cx="3" cy="3" r="3"/></g>
<g transform="translate(107.25,653.25) scale(4.4633333333333)"><circle cx="3" cy="3" r="3"/></g>
<g transform="translate(133.25,653.25) scale(4.4633333333333)"><circle cx="3" cy="3" r="3"/></g>
<g transform="translate(159.25,653.25) scale(4.4633333333333)"><circle cx="3" cy="3" r="3"/></g>
<g transform="translate(185.25,653.25) scale(4.4633333333333)"><circle cx="3" cy="3" r="3"/></g>
<g transform="translate(237.25,653.25) scale(4.4633333333333)"><circle cx="3" cy="3" r="3"/></g>
<g transform="translate(341.25,653.25) scale(4.4633333333333)"><circle cx="3" cy="3" r="3"/></g>
<g transform="translate(393.25,653.25) scale(4.4633333333333)"><circle cx="3" cy="3" r="3"/></g>
<g transform="translate(419.25,653.25) scale(4.4633333333333)"><circle cx="3" cy="3" r="3"/></g>
<g transform="translate(445.25,653.25) scale(4.4633333333333)"><circle cx="3" cy="3" r="3"/></g>
<g transform="translate(471.25,653.25) scale(4.4633333333333)"><circle cx="3" cy="3" r="3"/></g>
<g transform="translate(523.25,653.25) scale(4.4633333333333)"><circle cx="3" cy="3" r="3"/></g>
<g transform="translate(575.25,653.25) scale(4.4633333333333)"><circle cx="3" cy="3" r="3"/></g>
<g transform="translate(731.25,653.25) scale(4.4633333333333)"><circle cx="3" cy="3" r="3"/></g>
<g transform="translate(861.25,653.25) scale(4.4633333333333)"><circle cx="3" cy="3" r="3"/></g>
<g transform="translate(939.25,653.25) scale(4.4633333333333)"><circle cx="3" cy="3" r="3"/></g>
<g transform="translate(107.25,679.25) scale(4.4633333333333)"><circle cx="3" cy="3" r="3"/></g>
<g transform="translate(159.25,679.25) scale(4.4633333333333)"><circle cx="3" cy="3" r="3"/></g>
<g transform="translate(211.25,679.25) scale(4.4633333333333)"><circle cx="3" cy="3" r="3"/></g>
<g transform="translate(237.25,679.25) scale(4.4633333333333)"><circle cx="3" cy="3" r="3"/></g>
<g transform="translate(263.25,679.25) scale(4.4633333333333)"><circle cx="3" cy="3" r="3"/></g>
<g transform="translate(341.25,679.25) scale(4.4633333333333)"><circle cx="3" cy="3" r="3"/></g>
<g transform="translate(393.25,679.25) scale(4.4633333333333)"><circle cx="3" cy="3" r="3"/></g>
<g transform="translate(445.25,679.25) scale(4.4633333333333)"><circle cx="3" cy="3" r="3"/></g>
<g transform="translate(471.25,679.25) scale(4.4633333333333)"><circle cx="3" cy="3" r="3"/></g>
<g transform="translate(653.25,679.25) scale(4.4633333333333)"><circle cx="3" cy="3" r="3"/></g>
<g transform="translate(679.25,679.25) scale(4.4633333333333)"><circle cx="3" cy="3" r="3"/></g>
<g transform="translate(861.25,679.25) scale(4.4633333333333)"><circle cx="3" cy="3" r="3"/></g>
<g transform="translate(107.25,705.25) scale(4.4633333333333)"><circle cx="3" cy="3" r="3"/></g>
<g transform="translate(159.25,705.25) scale(4.4633333333333)"><circle cx="3" cy="3" r="3"/></g>
<g transform="translate(185.25,705.25) scale(4.4633333333333)"><circle cx="3" cy="3" r="3"/></g>
<g transform="translate(211.25,705.25) scale(4.4633333333333)"><circle cx="3" cy="3" r="3"/></g>
<g transform="translate(237.25,705.25) scale(4.4633333333333)"><circle cx="3" cy="3" r="3"/></g>
<g transform="translate(315.25,705.25) scale(4.4633333333333)"><circle cx="3" cy="3" r="3"/></g>
<g transform="translate(445.25,705.25) scale(4.4633333333333)"><circle cx="3" cy="3" r="3"/></g>
<g transform="translate(549.25,705.25) scale(4.4633333333333)"><circle cx="3" cy="3" r="3"/></g>
<g transform="translate(575.25,705.25) scale(4.4633333333333)"><circle cx="3" cy="3" r="3"/></g>
<g transform="translate(627.25,705.25) scale(4.4633333333333)"><circle cx="3" cy="3" r="3"/></g>
<g transform="translate(731.25,705.25) scale(4.4633333333333)"><circle cx="3" cy="3" r="3"/></g>
<g transform="translate(835.25,705.25) scale(4.4633333333333)"><circle cx="3" cy="3" r="3"/></g>
<g transform="translate(887.25,705.25) scale(4.4633333333333)"><circle cx="3" cy="3" r="3"/></g>
<g transform="translate(913.25,705.25) scale(4.4633333333333)"><circle cx="3" cy="3" r="3"/></g>
<g transform="translate(107.25,731.25) scale(4.4633333333333)"><circle cx="3" cy="3" r="3"/></g>
<g transform="translate(211.25,731.25) scale(4.4633333333333)"><circle cx="3" cy="3" r="3"/></g>
<g transform="translate(237.25,731.25) scale(4.4633333333333)"><circle cx="3" cy="3" r="3"/></g>
<g transform="translate(263.25,731.25) scale(4.4633333333333)"><circle cx="3" cy="3" r="3"/></g>
<g transform="translate(289.25,731.25) scale(4.4633333333333)"><circle cx="3" cy="3" r="3"/></g>
<g transform="translate(315.25,731.25) scale(4.4633333333333)"><circle cx="3" cy="3" r="3"/></g>
<g transform="translate(419.25,731.25) scale(4.4633333333333)"><circle cx="3" cy="3" r="3"/></g>
<g transform="translate(497.25,731.25) scale(4.4633333333333)"><circle cx="3" cy="3" r="3"/></g>
<g transform="translate(601.25,731.25) scale(4.4633333333333)"><circle cx="3" cy="3" r="3"/></g>
<g transform="translate(627.25,731.25) scale(4.4633333333333)"><circle cx="3" cy="3" r="3"/></g>
<g transform="translate(731.25,731.25) scale(4.4633333333333)"><circle cx="3" cy="3" r="3"/></g>
<g transform="translate(757.25,731.25) scale(4.4633333333333)"><circle cx="3" cy="3" r="3"/></g>
<g transform="translate(783.25,731.25) scale(4.4633333333333)"><circle cx="3" cy="3" r="3"/></g>
<g transform="translate(809.25,731.25) scale(4.4633333333333)"><circle cx="3" cy="3" r="3"/></g>
<g transform="translate(835.25,731.25) scale(4.4633333333333)"><circle cx="3" cy="3" r="3"/></g>
<g transform="translate(913.25,731.25) scale(4.4633333333333)"><circle cx="3" cy="3" r="3"/></g>
<g transform="translate(939.25,731.25) scale(4.4633333333333)"><circle cx="3" cy="3" r="3"/></g>
<g transform="translate(315.25,757.25) scale(4.4633333333333)"><circle cx="3" cy="3" r="3"/></g>
<g transform="translate(341.25,757.25) scale(4.4633333333333)"><circle cx="3" cy="3" r="3"/></g>
<g transform="translate(393.25,757.25) scale(4.4633333333333)"><circle cx="3" cy="3" r="3"/></g>
<g transform="translate(419.25,757.25) scale(4.4633333333333)"><circle cx="3" cy="3" r="3"/></g>
<g transform="translate(523.25,757.25) scale(4.4633333333333)"><circle cx="3" cy="3" r="3"/></g>
<g transform="translate(549.25,757.25) scale(4.4633333333333)"><circle cx="3" cy="3" r="3"/></g>
<g transform="translate(575.25,757.25) scale(4.4633333333333)"><circle cx="3" cy="3" r="3"/></g>
<g transform="translate(601.25,757.25) scale(4.4633333333333)"><circle cx="3" cy="3" r="3"/></g>
<g transform="translate(705.25,757.25) scale(4.4633333333333)"><circle cx="3" cy="3" r="3"/></g>
<g transform="translate(731.25,757.25) scale(4.4633333333333)"><circle cx="3" cy="3" r="3"/></g>
<g transform="translate(835.25,757.25) scale(4.4633333333333)"><circle cx="3" cy="3" r="3"/></g>
<g transform="translate(861.25,757.25) scale(4.4633333333333)"><circle cx="3" cy="3" r="3"/></g>
<g transform="translate(939.25,757.25) scale(4.4633333333333)"><circle cx="3" cy="3" r="3"/></g>
<g transform="translate(367.25,783.25) scale(4.4633333333333)"><circle cx="3" cy="3" r="3"/></g>
<g transform="translate(471.25,783.25) scale(4.4633333333333)"><circle cx="3" cy="3" r="3"/></g>
<g transform="translate(523.25,783.25) scale(4.4633333333333)"><circle cx="3" cy="3" r="3"/></g>
<g transform="translate(679.25,783.25) scale(4.4633333333333)"><circle cx="3" cy="3" r="3"/></g>
<g transform="translate(705.25,783.25) scale(4.4633333333333)"><circle cx="3" cy="3" r="3"/></g>
<g transform="translate(731.25,783.25) scale(4.4633333333333)"><circle cx="3" cy="3" r="3"/></g>
<g transform="translate(783.25,783.25) scale(4.4633333333333)"><circle cx="3" cy="3" r="3"/></g>
<g transform="translate(835.25,783.25) scale(4.4633333333333)"><circle cx="3" cy="3" r="3"/></g>
<g transform="translate(861.25,783.25) scale(4.4633333333333)"><circle cx="3" cy="3" r="3"/></g>
<g transform="translate(913.25,783.25) scale(4.4633333333333)"><circle cx="3" cy="3" r="3"/></g>
<g transform="translate(419.25,809.25) scale(4.4633333333333)"><circle cx="3" cy="3" r="3"/></g>
<g transform="translate(445.25,809.25) scale(4.4633333333333)"><circle cx="3" cy="3" r="3"/></g>
<g transform="translate(471.25,809.25) scale(4.4633333333333)"><circle cx="3" cy="3" r="3"/></g>
<g transform="translate(497.25,809.25) scale(4.4633333333333)"><circle cx="3" cy="3" r="3"/></g>
<g transform="translate(523.25,809.25) scale(4.4633333333333)"><circle cx="3" cy="3" r="3"/></g>
<g transform="translate(549.25,809.25) scale(4.4633333333333)"><circle cx="3" cy="3" r="3"/></g>
<g transform="translate(601.25,809.25) scale(4.4633333333333)"><circle cx="3" cy="3" r="3"/></g>
<g transform="translate(705.25,809.25) scale(4.4633333333333)"><circle cx="3" cy="3" r="3"/></g>
<g transform="translate(731.25,809.25) scale(4.4633333333333)"><circle cx="3" cy="3" r="3"/></g>
<g transform="translate(835.25,809.25) scale(4.4633333333333)"><circle cx="3" cy="3" r="3"/></g>
<g transform="translate(913.25,809.25) scale(4.4633333333333)"><circle cx="3" cy="3" r="3"/></g>
<g transform="translate(939.25,809.25) scale(4.4633333333333)"><circle cx="3" cy="3" r="3"/></g>
<g transform="translate(315.25,835.25) scale(4.4633333333333)"><circle cx="3" cy="3" r="3"/></g>
<g transform="translate(367.25,835.25) scale(4.4633333333333)"><circle cx="3" cy="3" r="3"/></g>
<g transform="translate(445.25,835.25) scale(4.4633333333333)"><circle cx="3" cy="3" r="3"/></g>
<g transform="translate(471.25,835.25) scale(4.4633333333333)"><circle cx="3" cy="3" r="3"/></g>
<g transform="translate(575.25,835.25) scale(4.4633333333333)"><circle cx="3" cy="3" r="3"/></g>
<g transform="translate(601.25,835.25) scale(4.4633333333333)"><circle cx="3" cy="3" r="3"/></g>
<g transform="translate(653.25,835.25) scale(4.4633333333333)"><circle cx="3" cy="3" r="3"/></g>
<g transform="translate(679.25,835.25) scale(4.4633333333333)"><circle cx="3" cy="3" r="3"/></g>
<g transform="translate(705.25,835.25) scale(4.4633333333333)"><circle cx="3" cy="3" r="3"/></g>
<g transform="translate(731.25,835.25) scale(4.4633333333333)"><circle cx="3" cy="3" r="3"/></g>
<g transform="translate(757.25,835.25) scale(4.4633333333333)"><circle cx="3" cy="3" r="3"/></g>
<g transform="translate(783.25,835.25) scale(4.4633333333333)"><circle cx="3" cy="3" r="3"/></g>
<g transform="translate(809.25,835.25) scale(4.4633333333333)"><circle cx="3" cy="3" r="3"/></g>
<g transform="translate(835.25,835.25) scale(4.4633333333333)"><circle cx="3" cy="3" r="3"/></g>
<g transform="translate(861.25,835.25) scale(4.4633333333333)"><circle cx="3" cy="3" r="3"/></g>
<g transform="translate(887.25,835.25) scale(4.4633333333333)"><circle cx="3" cy="3" r="3"/></g>
<g transform="translate(913.25,835.25) scale(4.4633333333333)"><circle cx="3" cy="3" r="3"/></g>
<g transform="translate(939.25,835.25) scale(4.4633333333333)"><circle cx="3" cy="3" r="3"/></g>
<g transform="translate(315.25,861.25) scale(4.4633333333333)"><circle cx="3" cy="3" r="3"/></g>
<g transform="translate(341.25,861.25) scale(4.4633333333333)"><circle cx="3" cy="3" r="3"/></g>
<g transform="translate(367.25,861.25) scale(4.4633333333333)"><circle cx="3" cy="3" r="3"/></g>
<g transform="translate(393.25,861.25) scale(4.4633333333333)"><circle cx="3" cy="3" r="3"/></g>
<g transform="translate(445.25,861.25) scale(4.4633333333333)"><circle cx="3" cy="3" r="3"/></g>
<g transform="translate(471.25,861.25) scale(4.4633333333333)"><circle cx="3" cy="3" r="3"/></g>
<g transform="translate(601.25,861.25) scale(4.4633333333333)"><circle cx="3" cy="3" r="3"/></g>
<g transform="translate(653.25,861.25) scale(4.4633333333333)"><circle cx="3" cy="3" r="3"/></g>
<g transform="translate(731.25,861.25) scale(4.4633333333333)"><circle cx="3" cy="3" r="3"/></g>
<g transform="translate(757.25,861.25) scale(4.4633333333333)"><circle cx="3" cy="3" r="3"/></g>
<g transform="translate(835.25,861.25) scale(4.4633333333333)"><circle cx="3" cy="3" r="3"/></g>
<g transform="translate(861.25,861.25) scale(4.4633333333333)"><circle cx="3" cy="3" r="3"/></g>
<g transform="translate(913.25,861.25) scale(4.4633333333333)"><circle cx="3" cy="3" r="3"/></g>
<g transform="translate(315.25,887.25) scale(4.4633333333333)"><circle cx="3" cy="3" r="3"/></g>
<g transform="translate(341.25,887.25) scale(4.4633333333333)"><circle cx="3" cy="3" r="3"/></g>
<g transform="translate(445.25,887.25) scale(4.4633333333333)"><circle cx="3" cy="3" r="3"/></g>
<g transform="translate(497.25,887.25) scale(4.4633333333333)"><circle cx="3" cy="3" r="3"/></g>
<g transform="translate(523.25,887.25) scale(4.4633333333333)"><circle cx="3" cy="3" r="3"/></g>
<g transform="translate(549.25,887.25) scale(4.4633333333333)"><circle cx="3" cy="3" r="3"/></g>
<g transform="translate(575.25,887.25) scale(4.4633333333333)"><circle cx="3" cy="3" r="3"/></g>
<g transform="translate(653.25,887.25) scale(4.4633333333333)"><circle cx="3" cy="3" r="3"/></g>
<g transform="translate(705.25,887.25) scale(4.4633333333333)"><circle cx="3" cy="3" r="3"/></g>
<g transform="translate(731.25,887.25) scale(4.4633333333333)"><circle cx="3" cy="3" r="3"/></g>
<g transform="translate(757.25,887.25) scale(4.4633333333333)"><circle cx="3" cy="3" r="3"/></g>
<g transform="translate(783.25,887.25) scale(4.4633333333333)"><circle cx="3" cy="3" r="3"/></g>
<g transform="translate(341.25,913.25) scale(4.4633333333333)"><circle cx="3" cy="3" r="3"/></g>
<g transform="translate(367.25,913.25) scale(4.4633333333333)"><circle cx="3" cy="3" r="3"/></g>
<g transform="translate(393.25,913.25) scale(4.4633333333333)"><circle cx="3" cy="3" r="3"/></g>
<g transform="translate(471.25,913.25) scale(4.4633333333333)"><circle cx="3" cy="3" r="3"/></g>
<g transform="translate(523.25,913.25) scale(4.4633333333333)"><circle cx="3" cy="3" r="3"/></g>
<g transform="translate(679.25,913.25) scale(4.4633333333333)"><circle cx="3" cy="3" r="3"/></g>
<g transform="translate(783.25,913.25) scale(4.4633333333333)"><circle cx="3" cy="3" r="3"/></g>
<g transform="translate(809.25,913.25) scale(4.4633333333333)"><circle cx="3" cy="3" r="3"/></g>
<g transform="translate(861.25,913.25) scale(4.4633333333333)"><circle cx="3" cy="3" r="3"/></g>
<g transform="translate(393.25,939.25) scale(4.4633333333333)"><circle cx="3" cy="3" r="3"/></g>
<g transform="translate(471.25,939.25) scale(4.4633333333333)"><circle cx="3" cy="3" r="3"/></g>
<g transform="translate(601.25,939.25) scale(4.4633333333333)"><circle cx="3" cy="3" r="3"/></g>
<g transform="translate(627.25,939.25) scale(4.4633333333333)"><circle cx="3" cy="3" r="3"/></g>
<g transform="translate(653.25,939.25) scale(4.4633333333333)"><circle cx="3" cy="3" r="3"/></g>
<g transform="translate(731.25,939.25) scale(4.4633333333333)"><circle cx="3" cy="3" r="3"/></g>
<g transform="translate(757.25,939.25) scale(4.4633333333333)"><circle cx="3" cy="3" r="3"/></g>
<g transform="translate(887.25,939.25) scale(4.4633333333333)"><circle cx="3" cy="3" r="3"/></g>
<g transform="translate(913.25,939.25) scale(4.4633333333333)"><circle cx="3" cy="3" r="3"/></g>
</g><g ><g transform="translate(107.25,107.25)"  fill="#000000"><g transform="scale(13)"><path d="M4.5,14h5.1C12,14,14,12,14,9.6V4.5C14,2,12,0,9.5,0H4.4C2,0,0,2,0,4.4v5.1C0,12,2,14,4.5,14z M12,4.8v4.4 c0,1.5-1.3,2.8-2.8,2.8H4.8C3.2,12,2,10.8,2,9.2V4.8C2,3.3,3.3,2,4.8,2h4.4C10.8,2,12,3.2,12,4.8z"/></g></g>
<g transform="translate(783.25,107.25)"  fill="#000000"><g transform="scale(13)"><path d="M4.5,14h5.1C12,14,14,12,14,9.6V4.5C14,2,12,0,9.5,0H4.4C2,0,0,2,0,4.4v5.1C0,12,2,14,4.5,14z M12,4.8v4.4 c0,1.5-1.3,2.8-2.8,2.8H4.8C3.2,12,2,10.8,2,9.2V4.8C2,3.3,3.3,2,4.8,2h4.4C10.8,2,12,3.2,12,4.8z"/></g></g>
<g transform="translate(107.25,783.25)"  fill="#000000"><g transform="scale(13)"><path d="M4.5,14h5.1C12,14,14,12,14,9.6V4.5C14,2,12,0,9.5,0H4.4C2,0,0,2,0,4.4v5.1C0,12,2,14,4.5,14z M12,4.8v4.4 c0,1.5-1.3,2.8-2.8,2.8H4.8C3.2,12,2,10.8,2,9.2V4.8C2,3.3,3.3,2,4.8,2h4.4C10.8,2,12,3.2,12,4.8z"/></g></g>
<g transform="translate(159.25,159.25)"  fill="#000000"><g transform="scale(13)"><path d="M6,1.7v2.7C6,5.2,5.2,6,4.3,6H1.7C0.7,6,0,5.3,0,4.3V1.7C0,0.8,0.8,0,1.7,0h2.7C5.3,0,6,0.7,6,1.7z"/></g></g>
<g transform="translate(835.25,159.25)"  fill="#000000"><g transform="scale(13)"><path d="M6,1.7v2.7C6,5.2,5.2,6,4.3,6H1.7C0.7,6,0,5.3,0,4.3V1.7C0,0.8,0.8,0,1.7,0h2.7C5.3,0,6,0.7,6,1.7z"/></g></g>
<g transform="translate(159.25,835.25)"  fill="#000000"><g transform="scale(13)"><path d="M6,1.7v2.7C6,5.2,5.2,6,4.3,6H1.7C0.7,6,0,5.3,0,4.3V1.7C0,0.8,0.8,0,1.7,0h2.7C5.3,0,6,0.7,6,1.7z"/></g></g></g>
<text fill="#FFFFFF" font-family="Arial, Helvetica, sans-serif" font-size="130px" text-anchor="middle" x="536.25" y="157.71875" transform="translate(0,1027.8125)">Ko-fi</text></svg>