<svg xmlns="http://www.w3.org/2000/svg" xml:space="preserve" xmlns:xlink="http://www.w3.org/1999/xlink" style="max-width: 100%;height: auto;" width="1063.75" height="1241.0416666667" viewBox="0 0 1063.75 1241.0416666667">
<rect width="984.85520833333" height="984.85520833333" fill="#ffffff" x="39.322916666667" y="39.322916666667"  />
<g fill="#fbbf24" transform="scale(44.322916666667)"> <path d="M22.7,0H1.3C0.6,0,0,0.6,0,1.3v25.3C0,27.4,0.6,28,1.3,28h21.4c0.7,0,1.3-0.6,1.3-1.3V1.3C24,0.6,23.4,0,22.7,0 z M23,22c0,0.6-0.5,1-1,1H2c-0.6,0-1-0.5-1-1V2c0-0.6,0.5-1,1-1h20c0.6,0,1,0.5,1,1V22z"/></g>
<g  fill="#000000">
<g transform="translate(290.375,106.375) scale(3.9483333333333)"><circle cx="3" cy="3" r="3"/></g>
<g transform="translate(336.375,106.375) scale(3.9483333333333)"><circle cx="3" cy="3" r="3"/></g>
<g transform="translate(428.375,106.375) scale(3.9483333333333)"><circle cx="3" cy="3" r="3"/></g>
<g transform="translate(474.375,106.375) scale(3.9483333333333)"><circle cx="3" cy="3" r="3"/></g>
<g transform="translate(497.375,106.375) scale(3.9483333333333)"><circle cx="3" cy="3" r="3"/></g>
<g transform="translate(520.375,106.375) scale(3.9483333333333)"><circle cx="3" cy="3" r="3"/></g>
<g transform="translate(589.375,106.375) scale(3.9483333333333)"><circle cx="3" cy="3" r="3"/></g>
<g transform="translate(612.375,106.375) scale(3.9483333333333)"><circle cx="3" cy="3" r="3"/></g>
<g transform="translate(635.375,106.375) scale(3.9483333333333)"><circle cx="3" cy="3" r="3"/></g>
<g transform="translate(658.375,106.375) scale(3.9483333333333)"><circle cx="3" cy="3" r="3"/></g>
<g transform="translate(750.375,106.375) scale(3.9483333333333)"><circle cx="3" cy="3" r="3"/></g>
<g transform="translate(290.375,129.375) scale(3.9483333333333)"><circle cx="3" cy="3" r="3"/></g>
<g transform="translate(313.375,129.375) scale(3.9483333333333)"><circle cx="3" cy="3" r="3"/></g>
<g transform="translate(382.375,129.375) scale(3.9483333333333)"><circle cx="3" cy="3" r="3"/></g>
<g transform="translate(589.375,129.375) scale(3.9483333333333)"><circle cx="3" cy="3" r="3"/></g>
<g transform="translate(612.375,129.375) scale(3.9483333333333)"><circle cx="3" cy="3" r="3"/></g>
<g transform="translate(635.375,129.375) scale(3.9483333333333)"><circle cx="3" cy="3" r="3"/></g>
<g transform="translate(658.375,129.375) scale(3.9483333333333)"><circle cx="3" cy="3" r="3"/></g>
<g transform="translate(704.375,129.375) scale(3.9483333333333)"><circle cx="3" cy="3" r="3"/></g>
<g transform="translate(727.375,129.375) scale(3.9483333333333)"><circle cx="3" cy="3" r="3"/></g>
<g transform="translate(750.375,129.375) scale(3.9483333333333)"><circle cx="3" cy="3" r="3"/></g>
<g transform="translate(290.375,152.375) scale(3.9483333333333)"><circle cx="3" cy="3" r="3"/></g>
<g transform="translate(336.375,152.375) scale(3.9483333333333)"><circle cx="3" cy="3" r="3"/></g>
<g transform="translate(382.375,152.375) scale(3.9483333333333)"><circle cx="3" cy="3" r="3"/></g>
<g transform="translate(405.375,152.375) scale(3.9483333333333)"><circle cx="3" cy="3" r="3"/></g>
<g transform="translate(428.375,152.375) scale(3.9483333333333)"><circle cx="3" cy="3" r="3"/></g>
<g transform="translate(497.375,152.375) scale(3.9483333333333)"><circle cx="3" cy="3" r="3"/></g>
<g transform="translate(520.375,152.375) scale(3.9483333333333)"><circle cx="3" cy="3" r="3"/></g>
<g transform="translate(589.375,152.375) scale(3.9483333333333)"><circle cx="3" cy="3" r="3"/></g>
<g transform="translate(635.375,152.375) scale(3.9483333333333)"><circle cx="3" cy="3" r="3"/></g>
<g transform="translate(727.375,152.375) scale(3.9483333333333)"><circle cx="3" cy="3" r="3"/></g>
<g transform="translate(451.375,175.375) scale(3.9483333333333)"><circle cx="3" cy="3" r="3"/></g>
<g transform="translate(474.375,175.375) scale(3.9483333333333)"><circle cx="3" cy="3" r="3"/></g>
<g transform="translate(497.375,175.375) scale(3.9483333333333)"><circle cx="3" cy="3" r="3"/></g>
<g transform="translate(543.375,175.375) scale(3.9483333333333)"><circle cx="3" cy="3" r="3"/></g>
<g transform="translate(566.375,175.375) scale(3.9483333333333)"><circle cx="3" cy="3" r="3"/></g>
<g transform="translate(589.375,175.375) scale(3.9483333333333)"><circle cx="3" cy="3" r="3"/></g>
<g transform="translate(612.375,175.375) scale(3.9483333333333)"><circle cx="3" cy="3" r="3"/></g>
<g transform="translate(635.375,175.375) scale(3.9483333333333)"><circle cx="3" cy="3" r="3"/></g>
<g transform="translate(681.375,175.375) scale(3.9483333333333)"><circle cx="3" cy="3" r="3"/></g>
<g transform="translate(727.375,175.375) scale(3.9483333333333)"><circle cx="3" cy="3" r="3"/></g>
<g transform="translate(750.375,175.375) scale(3.9483333333333)"><circle cx="3" cy="3" r="3"/></g>
<g transform="translate(313.375,198.375) scale(3.9483333333333)"><circle cx="3" cy="3" r="3"/></g>
<g transform="translate(382.375,198.375) scale(3.9483333333333)"><circle cx="3" cy="3" r="3"/></g>
<g transform="translate(543.375,198.375) scale(3.9483333333333)"><circle cx="3" cy="3" r="3"/></g>
<g transform="translate(589.375,198.375) scale(3.9483333333333)"><circle cx="3" cy="3" r="3"/></g>
<g transform="translate(612.375,198.375) scale(3.9483333333333)"><circle cx="3" cy="3" r="3"/></g>
<g transform="translate(635.375,198.375) scale(3.9483333333333)"><circle cx="3" cy="3" r="3"/></g>
<g transform="translate(290.375,221.375) scale(3.9483333333333)"><circle cx="3" cy="3" r="3"/></g>
<g transform="translate(336.375,221.375) scale(3.9483333333333)"><circle cx="3" cy="3" r="3"/></g>
<g transform="translate(359.375,221.375) scale(3.9483333333333)"><circle cx="3" cy="3" r="3"/></g>
<g transform="translate(451.375,221.375) scale(3.9483333333333)"><circle cx="3" cy="3" r="3"/></g>
<g transform="translate(497.375,221.375) scale(3.9483333333333)"><circle cx="3" cy="3" r="3"/></g>
<g transform="translate(543.375,221.375) scale(3.9483333333333)"><circle cx="3" cy="3" r="3"/></g>
<g transform="translate(589.375,221.375) scale(3.9483333333333)"><circle cx="3" cy="3" r="3"/></g>
<g transform="translate(635.375,221.375) scale(3.9483333333333)"><circle cx="3" cy="3" r="3"/></g>
<g transform="translate(681.375,221.375) scale(3.9483333333333)"><circle cx="3" cy="3" r="3"/></g>
<g transform="translate(704.375,221.375) scale(3.9483333333333)"><circle cx="3" cy="3" r="3"/></g>
<g transform="translate(727.375,221.375) scale(3.9483333333333)"><circle cx="3" cy="3" r="3"/></g>
<g transform="translate(750.375,221.375) scale(3.9483333333333)"><circle cx="3" cy="3" r="3"/></g>
<g transform="translate(290.375,244.375) scale(3.9483333333333)"><circle cx="3" cy="3" r="3"/></g>
<g transform="translate(336.375,244.375) scale(3.9483333333333)"><circle cx="3" cy="3" r="3"/></g>
<g transform="translate(382.375,244.375) scale(3.9483333333333)"><circle cx="3" cy="3" r="3"/></g>
<g transform="translate(428.375,244.375) scale(3.9483333333333)"><circle cx="3" cy="3" r="3"/></g>
<g transform="translate(474.375,244.375) scale(3.9483333333333)"><circle cx="3" cy="3" r="3"/></g>
<g transform="translate(520.375,244.375) scale(3.9483333333333)"><circle cx="3" cy="3" r="3"/></g>
<g transform="translate(566.375,244.375) scale(3.9483333333333)"><circle cx="3" cy="3" r="3"/></g>
<g transform="translate(612.375,244.375) scale(3.9483333333333)"><circle cx="3" cy="3" r="3"/></g>
<g transform="translate(658.375,244.375) scale(3.9483333333333)"><circle cx="3" cy="3" r="3"/></g>
<g transform="translate(704.375,244.375) scale(3.9483333333333)"><circle cx="3" cy="3" r="3"/></g>
<g transform="translate(750.375,244.375) scale(3.9483333333333)"><circle cx="3" cy="3" r="3"/></g>
<g transform="translate(290.375,267.375) scale(3.9483333333333)"><circle cx="3" cy="3" r="3"/></g>
<g transform="translate(313.375,267.375) scale(3.9483333333333)"><circle cx="3" cy="3" r="3"/></g>
<g transform="translate(336.375,267.375) scale(3.9483333333333)"><circle cx="3" cy="3" r="3"/></g>
<g transform="translate(451.375,267.375) scale(3.9483333333333)"><circle cx="3" cy="3" r="3"/></g>
<g transform="translate(497.375,267.375) scale(3.9483333333333)"><circle cx="3" cy="3" r="3"/></g>
<g transform="translate(520.375,267.375) scale(3.9483333333333)"><circle cx="3" cy="3" r="3"/></g>
<g transform="translate(543.375,267.375) scale(3.9483333333333)"><circle cx="3" cy="3" r="3"/></g>
<g transform="translate(566.375,267.375) scale(3.9483333333333)"><circle cx="3" cy="3" r="3"/></g>
<g transform="translate(589.375,267.375) scale(3.9483333333333)"><circle cx="3" cy="3" r="3"/></g>
<g transform="translate(612.375,267.375) scale(3.9483333333333)"><circle cx="3" cy="3" r="3"/></g>
<g transform="translate(635.375,267.375) scale(3.9483333333333)"><circle cx="3" cy="3" r="3"/></g>
<g transform="translate(704.375,267.375) scale(3.9483333333333)"><circle cx="3" cy="3" r="3"/></g>
<g transform="translate(152.375,290.375) scale(3.9483333333333)"><circle cx="3" cy="3" r="3"/></g>
<g transform="translate(175.375,290.375) scale(3.9483333333333)"><circle cx="3" cy="3" r="3"/></g>
<g transform="translate(198.375,290.375) scale(3.9483333333333)"><circle cx="3" cy="3" r="3"/></g>
<g transform="translate(244.375,290.375) scale(3.9483333333333)"><circle cx="3" cy="3" r="3"/></g>
<g transform="translate(290.375,290.375) scale(3.9483333333333)"><circle cx="3" cy="3" r="3"/></g>
<g transform="translate(313.375,290.375) scale(3.9483333333333)"><circle cx="3" cy="3" r="3"/></g>
<g transform="translate(359.375,290.375) scale(3.9483333333333)"><circle cx="3" cy="3" r="3"/></g>
<g transform="translate(428.375,290.375) scale(3.9483333333333)"><circle cx="3" cy="3" r="3"/></g>
<g transform="translate(451.375,290.375) scale(3.9483333333333)"><circle cx="3" cy="3" r="3"/></g>
<g transform="translate(474.375,290.375) scale(3.9483333333333)"><circle cx="3" cy="3" r="3"/></g>
<g transform="translate(566.375,290.375) scale(3.9483333333333)"><circle cx="3" cy="3" r="3"/></g>
<g transform="translate(612.375,290.375) scale(3.9483333333333)"><circle cx="3" cy="3" r="3"/></g>
<g transform="translate(635.375,290.375) scale(3.9483333333333)"><circle cx="3" cy="3" r="3"/></g>
<g transform="translate(658.375,290.375) scale(3.9483333333333)"><circle cx="3" cy="3" r="3"/></g>
<g transform="translate(681.375,290.375) scale(3.9483333333333)"><circle cx="3" cy="3" r="3"/></g>
<g transform="translate(727.375,290.375) scale(3.9483333333333)"><circle cx="3" cy="3" r="3"/></g>
<g transform="translate(750.375,290.375) scale(3.9483333333333)"><circle cx="3" cy="3" r="3"/></g>
<g transform="translate(773.375,290.375) scale(3.9483333333333)"><circle cx="3" cy="3" r="3"/></g>
<g transform="translate(796.375,290.375) scale(3.9483333333333)"><circle cx="3" cy="3" r="3"/></g>
<g transform="translate(819.375,290.375) scale(3.9483333333333)"><circle cx="3" cy="3" r="3"/></g>
<g transform="translate(888.375,290.375) scale(3.9483333333333)"><circle cx="3" cy="3" r="3"/></g>
<g transform="translate(911.375,290.375) scale(3.9483333333333)"><circle cx="3" cy="3" r="3"/></g>
<g transform="translate(934.375,290.375) scale(3.9483333333333)"><circle cx="3" cy="3" r="3"/></g>
<g transform="translate(106.375,313.375) scale(3.9483333333333)"><circle cx="3" cy="3" r="3"/></g>
<g transform="translate(267.375,313.375) scale(3.9483333333333)"><circle cx="3" cy="3" r="3"/></g>
<g transform="translate(290.375,313.375) scale(3.9483333333333)"><circle cx="3" cy="3" r="3"/></g>
<g transform="translate(405.375,313.375) scale(3.9483333333333)"><circle cx="3" cy="3" r="3"/></g>
<g transform="translate(474.375,313.375) scale(3.9483333333333)"><circle cx="3" cy="3" r="3"/></g>
<g transform="translate(497.375,313.375) scale(3.9483333333333)"><circle cx="3" cy="3" r="3"/></g>
<g transform="translate(520.375,313.375) scale(3.9483333333333)"><circle cx="3" cy="3" r="3"/></g>
<g transform="translate(704.375,313.375) scale(3.9483333333333)"><circle cx="3" cy="3" r="3"/></g>
<g transform="translate(773.375,313.375) scale(3.9483333333333)"><circle cx="3" cy="3" r="3"/></g>
<g transform="translate(796.375,313.375) scale(3.9483333333333)"><circle cx="3" cy="3" r="3"/></g>
<g transform="translate(129.375,336.375) scale(3.9483333333333)"><circle cx="3" cy="3" r="3"/></g>
<g transform="translate(175.375,336.375) scale(3.9483333333333)"><circle cx="3" cy="3" r="3"/></g>
<g transform="translate(198.375,336.375) scale(3.9483333333333)"><circle cx="3" cy="3" r="3"/></g>
<g transform="translate(221.375,336.375) scale(3.9483333333333)"><circle cx="3" cy="3" r="3"/></g>
<g transform="translate(244.375,336.375) scale(3.9483333333333)"><circle cx="3" cy="3" r="3"/></g>
<g transform="translate(267.375,336.375) scale(3.9483333333333)"><circle cx="3" cy="3" r="3"/></g>
<g transform="translate(290.375,336.375) scale(3.9483333333333)"><circle cx="3" cy="3" r="3"/></g>
<g transform="translate(313.375,336.375) scale(3.9483333333333)"><circle cx="3" cy="3" r="3"/></g>
<g transform="translate(336.375,336.375) scale(3.9483333333333)"><circle cx="3" cy="3" r="3"/></g>
<g transform="translate(405.375,336.375) scale(3.9483333333333)"><circle cx="3" cy="3" r="3"/></g>
<g transform="translate(428.375,336.375) scale(3.9483333333333)"><circle cx="3" cy="3" r="3"/></g>
<g transform="translate(497.375,336.375) scale(3.9483333333333)"><circle cx="3" cy="3" r="3"/></g>
<g transform="translate(520.375,336.375) scale(3.9483333333333)"><circle cx="3" cy="3" r="3"/></g>
<g transform="translate(566.375,336.375) scale(3.9483333333333)"><circle cx="3" cy="3" r="3"/></g>
<g transform="translate(635.375,336.375) scale(3.9483333333333)"><circle cx="3" cy="3" r="3"/></g>
<g transform="translate(658.375,336.375) scale(3.9483333333333)"><circle cx="3" cy="3" r="3"/></g>
<g transform="translate(681.375,336.375) scale(3.9483333333333)"><circle cx="3" cy="3" r="3"/></g>
<g transform="translate(727.375,336.375) scale(3.9483333333333)"><circle cx="3" cy="3" r="3"/></g>
<g transform="translate(750.375,336.375) scale(3.9483333333333)"><circle cx="3" cy="3" r="3"/></g>
<g transform="translate(796.375,336.375) scale(3.9483333333333)"><circle cx="3" cy="3" r="3"/></g>
<g transform="translate(888.375,336.375) scale(3.9483333333333)"><circle cx="3" cy="3" r="3"/></g>
<g transform="translate(911.375,336.375) scale(3.9483333333333)"><circle cx="3" cy="3" r="3"/></g>
<g transform="translate(934.375,336.375) scale(3.9483333333333)"><circle cx="3" cy="3" r="3"/></g>
<g transform="translate(106.375,359.375) scale(3.9483333333333)"><circle cx="3" cy="3" r="3"/></g>
<g transform="translate(129.375,359.375) scale(3.9483333333333)"><circle cx="3" cy="3" r="3"/></g>
<g transform="translate(175.375,359.375) scale(3.9483333333333)"><circle cx="3" cy="3" r="3"/></g>
<g transform="translate(198.375,359.375) scale(3.9483333333333)"><circle cx="3" cy="3" r="3"/></g>
<g transform="translate(221.375,359.375) scale(3.9483333333333)"><circle cx="3" cy="3" r="3"/></g>
<g transform="translate(267.375,359.375) scale(3.9483333333333)"><circle cx="3" cy="3" r="3"/></g>
<g transform="translate(336.375,359.375) scale(3.9483333333333)"><circle cx="3" cy="3" r="3"/></g>
<g transform="translate(359.375,359.375) scale(3.9483333333333)"><circle cx="3" cy="3" r="3"/></g>
<g transform="translate(382.375,359.375) scale(3.9483333333333)"><circle cx="3" cy="3" r="3"/></g>
<g transform="translate(405.375,359.375) scale(3.9483333333333)"><circle cx="3" cy="3" r="3"/></g>
<g transform="translate(428.375,359.375) scale(3.9483333333333)"><circle cx="3" cy="3" r="3"/></g>
<g transform="translate(497.375,359.375) scale(3.9483333333333)"><circle cx="3" cy="3" r="3"/></g>
<g transform="translate(589.375,359.375) scale(3.9483333333333)"><circle cx="3" cy="3" r="3"/></g>
<g transform="translate(612.375,359.375) scale(3.9483333333333)"><circle cx="3" cy="3" r="3"/></g>
<g transform="translate(658.375,359.375) scale(3.9483333333333)"><circle cx="3" cy="3" r="3"/></g>
<g transform="translate(704.375,359.375) scale(3.9483333333333)"><circle cx="3" cy="3" r="3"/></g>
<g transform="translate(727.375,359.375) scale(3.9483333333333)"><circle cx="3" cy="3" r="3"/></g>
<g transform="translate(750.375,359.375) scale(3.9483333333333)"><circle cx="3" cy="3" r="3"/></g>
<g transform="translate(773.375,359.375) scale(3.9483333333333)"><circle cx="3" cy="3" r="3"/></g>
<g transform="translate(865.375,359.375) scale(3.9483333333333)"><circle cx="3" cy="3" r="3"/></g>
<g transform="translate(911.375,359.375) scale(3.9483333333333)"><circle cx="3" cy="3" r="3"/></g>
<g transform="translate(129.375,382.375) scale(3.9483333333333)"><circle cx="3" cy="3" r="3"/></g>
<g transform="translate(244.375,382.375) scale(3.9483333333333)"><circle cx="3" cy="3" r="3"/></g>
<g transform="translate(267.375,382.375) scale(3.9483333333333)"><circle cx="3" cy="3" r="3"/></g>
<g transform="translate(313.375,382.375) scale(3.9483333333333)"><circle cx="3" cy="3" r="3"/></g>
<g transform="translate(336.375,382.375) scale(3.9483333333333)"><circle cx="3" cy="3" r="3"/></g>
<g transform="translate(382.375,382.375) scale(3.9483333333333)"><circle cx="3" cy="3" r="3"/></g>
<g transform="translate(428.375,382.375) scale(3.9483333333333)"><circle cx="3" cy="3" r="3"/></g>
<g transform="translate(451.375,382.375) scale(3.9483333333333)"><circle cx="3" cy="3" r="3"/></g>
<g transform="translate(474.375,382.375) scale(3.9483333333333)"><circle cx="3" cy="3" r="3"/></g>
<g transform="translate(566.375,382.375) scale(3.9483333333333)"><circle cx="3" cy="3" r="3"/></g>
<g transform="translate(589.375,382.375) scale(3.9483333333333)"><circle cx="3" cy="3" r="3"/></g>
<g transform="translate(635.375,382.375) scale(3.9483333333333)"><circle cx="3" cy="3" r="3"/></g>
<g transform="translate(681.375,382.375) scale(3.9483333333333)"><circle cx="3" cy="3" r="3"/></g>
<g transform="translate(727.375,382.375) scale(3.9483333333333)"><circle cx="3" cy="3" r="3"/></g>
<g transform="translate(796.375,382.375) scale(3.9483333333333)"><circle cx="3" cy="3" r="3"/></g>
<g transform="translate(819.375,382.375) scale(3.9483333333333)"><circle cx="3" cy="3" r="3"/></g>
<g transform="translate(842.375,382.375) scale(3.9483333333333)"><circle cx="3" cy="3" r="3"/></g>
<g transform="translate(888.375,382.375) scale(3.9483333333333)"><circle cx="3" cy="3" r="3"/></g>
<g transform="translate(911.375,382.375) scale(3.9483333333333)"><circle cx="3" cy="3" r="3"/></g>
<g transform="translate(934.375,382.375) scale(3.9483333333333)"><circle cx="3" cy="3" r="3"/></g>
<g transform="translate(198.375,405.375) scale(3.9483333333333)"><circle cx="3" cy="3" r="3"/></g>
<g transform="translate(267.375,405.375) scale(3.9483333333333)"><circle cx="3" cy="3" r="3"/></g>
<g transform="translate(336.375,405.375) scale(3.9483333333333)"><circle cx="3" cy="3" r="3"/></g>
<g transform="translate(359.375,405.375) scale(3.9483333333333)"><circle cx="3" cy="3" r="3"/></g>
<g transform="translate(382.375,405.375) scale(3.9483333333333)"><circle cx="3" cy="3" r="3"/></g>
<g transform="translate(405.375,405.375) scale(3.9483333333333)"><circle cx="3" cy="3" r="3"/></g>
<g transform="translate(428.375,405.375) scale(3.9483333333333)"><circle cx="3" cy="3" r="3"/></g>
<g transform="translate(474.375,405.375) scale(3.9483333333333)"><circle cx="3" cy="3" r="3"/></g>
<g transform="translate(520.375,405.375) scale(3.9483333333333)"><circle cx="3" cy="3" r="3"/></g>
<g transform="translate(589.375,405.375) scale(3.9483333333333)"><circle cx="3" cy="3" r="3"/></g>
<g transform="translate(612.375,405.375) scale(3.9483333333333)"><circle cx="3" cy="3" r="3"/></g>
<g transform="translate(635.375,405.375) scale(3.9483333333333)"><circle cx="3" cy="3" r="3"/></g>
<g transform="translate(704.375,405.375) scale(3.9483333333333)"><circle cx="3" cy="3" r="3"/></g>
<g transform="translate(750.375,405.375) scale(3.9483333333333)"><circle cx="3" cy="3" r="3"/></g>
<g transform="translate(773.375,405.375) scale(3.9483333333333)"><circle cx="3" cy="3" r="3"/></g>
<g transform="translate(865.375,405.375) scale(3.9483333333333)"><circle cx="3" cy="3" r="3"/></g>
<g transform="translate(911.375,405.375) scale(3.9483333333333)"><circle cx="3" cy="3" r="3"/></g>
<g transform="translate(129.375,428.375) scale(3.9483333333333)"><circle cx="3" cy="3" r="3"/></g>
<g transform="translate(198.375,428.375) scale(3.9483333333333)"><circle cx="3" cy="3" r="3"/></g>
<g transform="translate(221.375,428.375) scale(3.9483333333333)"><circle cx="3" cy="3" r="3"/></g>
<g transform="translate(244.375,428.375) scale(3.9483333333333)"><circle cx="3" cy="3" r="3"/></g>
<g transform="translate(359.375,428.375) scale(3.9483333333333)"><circle cx="3" cy="3" r="3"/></g>
<g transform="translate(382.375,428.375) scale(3.9483333333333)"><circle cx="3" cy="3" r="3"/></g>
<g transform="translate(428.375,428.375) scale(3.9483333333333)"><circle cx="3" cy="3" r="3"/></g>
<g transform="translate(451.375,428.375) scale(3.9483333333333)"><circle cx="3" cy="3" r="3"/></g>
<g transform="translate(474.375,428.375) scale(3.9483333333333)"><circle cx="3" cy="3" r="3"/></g>
<g transform="translate(543.375,428.375) scale(3.9483333333333)"><circle cx="3" cy="3" r="3"/></g>
<g transform="translate(566.375,428.375) scale(3.9483333333333)"><circle cx="3" cy="3" r="3"/></g>
<g transform="translate(589.375,428.375) scale(3.9483333333333)"><circle cx="3" cy="3" r="3"/></g>
<g transform="translate(612.375,428.375) scale(3.9483333333333)"><circle cx="3" cy="3" r="3"/></g>
<g transform="translate(704.375,428.375) scale(3.9483333333333)"><circle cx="3" cy="3" r="3"/></g>
<g transform="translate(727.375,428.375) scale(3.9483333333333)"><circle cx="3" cy="3" r="3"/></g>
<g transform="translate(819.375,428.375) scale(3.9483333333333)"><circle cx="3" cy="3" r="3"/></g>
<g transform="translate(865.375,428.375) scale(3.9483333333333)"><circle cx="3" cy="3" r="3"/></g>
<g transform="translate(934.375,428.375) scale(3.9483333333333)"><circle cx="3" cy="3" r="3"/></g>
<g transform="translate(106.375,451.375) scale(3.9483333333333)"><circle cx="3" cy="3" r="3"/></g>
<g transform="translate(152.375,451.375) scale(3.9483333333333)"><circle cx="3" cy="3" r="3"/></g>
<g transform="translate(221.375,451.375) scale(3.9483333333333)"><circle cx="3" cy="3" r="3"/></g>
<g transform="translate(313.375,451.375) scale(3.9483333333333)"><circle cx="3" cy="3" r="3"/></g>
<g transform="translate(336.375,451.375) scale(3.9483333333333)"><circle cx="3" cy="3" r="3"/></g>
<g transform="translate(359.375,451.375) scale(3.9483333333333)"><circle cx="3" cy="3" r="3"/></g>
<g transform="translate(382.375,451.375) scale(3.9483333333333)"><circle cx="3" cy="3" r="3"/></g>
<g transform="translate(428.375,451.375) scale(3.9483333333333)"><circle cx="3" cy="3" r="3"/></g>
<g transform="translate(474.375,451.375) scale(3.9483333333333)"><circle cx="3" cy="3" r="3"/></g>
<g transform="translate(497.375,451.375) scale(3.9483333333333)"><circle cx="3" cy="3" r="3"/></g>
<g transform="translate(543.375,451.375) scale(3.9483333333333)"><circle cx="3" cy="3" r="3"/></g>
<g transform="translate(566.375,451.375) scale(3.9483333333333)"><circle cx="3" cy="3" r="3"/></g>
<g transform="translate(589.375,451.375) scale(3.9483333333333)"><circle cx="3" cy="3" r="3"/></g>
<g transform="translate(658.375,451.375) scale(3.9483333333333)"><circle cx="3" cy="3" r="3"/></g>
<g transform="translate(704.375,451.375) scale(3.9483333333333)"><circle cx="3" cy="3" r="3"/></g>
<g transform="translate(727.375,451.375) scale(3.9483333333333)"><circle cx="3" cy="3" r="3"/></g>
<g transform="translate(773.375,451.375) scale(3.9483333333333)"><circle cx="3" cy="3" r="3"/></g>
<g transform="translate(796.375,451.375) scale(3.9483333333333)"><circle cx="3" cy="3" r="3"/></g>
<g transform="translate(911.375,451.375) scale(3.9483333333333)"><circle cx="3" cy="3" r="3"/></g>
<g transform="translate(106.375,474.375) scale(3.9483333333333)"><circle cx="3" cy="3" r="3"/></g>
<g transform="translate(175.375,474.375) scale(3.9483333333333)"><circle cx="3" cy="3" r="3"/></g>
<g transform="translate(244.375,474.375) scale(3.9483333333333)"><circle cx="3" cy="3" r="3"/></g>
<g transform="translate(382.375,474.375) scale(3.9483333333333)"><circle cx="3" cy="3" r="3"/></g>
<g transform="translate(405.375,474.375) scale(3.9483333333333)"><circle cx="3" cy="3" r="3"/></g>
<g transform="translate(474.375,474.375) scale(3.9483333333333)"><circle cx="3" cy="3" r="3"/></g>
<g transform="translate(543.375,474.375) scale(3.9483333333333)"><circle cx="3" cy="3" r="3"/></g>
<g transform="translate(589.375,474.375) scale(3.9483333333333)"><circle cx="3" cy="3" r="3"/></g>
<g transform="translate(612.375,474.375) scale(3.9483333333333)"><circle cx="3" cy="3" r="3"/></g>
<g transform="translate(681.375,474.375) scale(3.9483333333333)"><circle cx="3" cy="3" r="3"/></g>
<g transform="translate(727.375,474.375) scale(3.9483333333333)"><circle cx="3" cy="3" r="3"/></g>
<g transform="translate(773.375,474.375) scale(3.9483333333333)"><circle cx="3" cy="3" r="3"/></g>
<g transform="translate(796.375,474.375) scale(3.9483333333333)"><circle cx="3" cy="3" r="3"/></g>
<g transform="translate(819.375,474.375) scale(3.9483333333333)"><circle cx="3" cy="3" r="3"/></g>
<g transform="translate(842.375,474.375) scale(3.9483333333333)"><circle cx="3" cy="3" r="3"/></g>
<g transform="translate(888.375,474.375) scale(3.9483333333333)"><circle cx="3" cy="3" r="3"/></g>
<g transform="translate(934.375,474.375) scale(3.9483333333333)"><circle cx="3" cy="3" r="3"/></g>
<g transform="translate(129.375,497.375) scale(3.9483333333333)"><circle cx="3" cy="3" r="3"/></g>
<g transform="translate(152.375,497.375) scale(3.9483333333333)"><circle cx="3" cy="3" r="3"/></g>
<g transform="translate(221.375,497.375) scale(3.9483333333333)"><circle cx="3" cy="3" r="3"/></g>
<g transform="translate(267.375,497.375) scale(3.9483333333333)"><circle cx="3" cy="3" r="3"/></g>
<g transform="translate(313.375,497.375) scale(3.9483333333333)"><circle cx="3" cy="3" r="3"/></g>
<g transform="translate(382.375,497.375) scale(3.9483333333333)"><circle cx="3" cy="3" r="3"/></g>
<g transform="translate(405.375,497.375) scale(3.9483333333333)"><circle cx="3" cy="3" r="3"/></g>
<g transform="translate(474.375,497.375) scale(3.9483333333333)"><circle cx="3" cy="3" r="3"/></g>
<g transform="translate(497.375,497.375) scale(3.9483333333333)"><circle cx="3" cy="3" r="3"/></g>
<g transform="translate(543.375,497.375) scale(3.9483333333333)"><circle cx="3" cy="3" r="3"/></g>
<g transform="translate(566.375,497.375) scale(3.9483333333333)"><circle cx="3" cy="3" r="3"/></g>
<g transform="translate(658.375,497.375) scale(3.9483333333333)"><circle cx="3" cy="3" r="3"/></g>
<g transform="translate(704.375,497.375) scale(3.9483333333333)"><circle cx="3" cy="3" r="3"/></g>
<g transform="translate(750.375,497.375) scale(3.9483333333333)"><circle cx="3" cy="3" r="3"/></g>
<g transform="translate(796.375,497.375) scale(3.9483333333333)"><circle cx="3" cy="3" r="3"/></g>
<g transform="translate(911.375,497.375) scale(3.9483333333333)"><circle cx="3" cy="3" r="3"/></g>
<g transform="translate(129.375,520.375) scale(3.9483333333333)"><circle cx="3" cy="3" r="3"/></g>
<g transform="translate(221.375,520.375) scale(3.9483333333333)"><circle cx="3" cy="3" r="3"/></g>
<g transform="translate(244.375,520.375) scale(3.9483333333333)"><circle cx="3" cy="3" r="3"/></g>
<g transform="translate(290.375,520.375) scale(3.9483333333333)"><circle cx="3" cy="3" r="3"/></g>
<g transform="translate(336.375,520.375) scale(3.9483333333333)"><circle cx="3" cy="3" r="3"/></g>
<g transform="translate(359.375,520.375) scale(3.9483333333333)"><circle cx="3" cy="3" r="3"/></g>
<g transform="translate(405.375,520.375) scale(3.9483333333333)"><circle cx="3" cy="3" r="3"/></g>
<g transform="translate(428.375,520.375) scale(3.9483333333333)"><circle cx="3" cy="3" r="3"/></g>
<g transform="translate(497.375,520.375) scale(3.9483333333333)"><circle cx="3" cy="3" r="3"/></g>
<g transform="translate(520.375,520.375) scale(3.9483333333333)"><circle cx="3" cy="3" r="3"/></g>
<g transform="translate(543.375,520.375) scale(3.9483333333333)"><circle cx="3" cy="3" r="3"/></g>
<g transform="translate(566.375,520.375) scale(3.9483333333333)"><circle cx="3" cy="3" r="3"/></g>
<g transform="translate(589.375,520.375) scale(3.9483333333333)"><circle cx="3" cy="3" r="3"/></g>
<g transform="translate(658.375,520.375) scale(3.9483333333333)"><circle cx="3" cy="3" r="3"/></g>
<g transform="translate(727.375,520.375) scale(3.9483333333333)"><circle cx="3" cy="3" r="3"/></g>
<g transform="translate(750.375,520.375) scale(3.9483333333333)"><circle cx="3" cy="3" r="3"/></g>
<g transform="translate(796.375,520.375) scale(3.9483333333333)"><circle cx="3" cy="3" r="3"/></g>
<g transform="translate(819.375,520.375) scale(3.9483333333333)"><circle cx="3" cy="3" r="3"/></g>
<g transform="translate(842.375,520.375) scale(3.9483333333333)"><circle cx="3" cy="3" r="3"/></g>
<g transform="translate(865.375,520.375) scale(3.9483333333333)"><circle cx="3" cy="3" r="3"/></g>
<g transform="translate(888.375,520.375) scale(3.9483333333333)"><circle cx="3" cy="3" r="3"/></g>
<g transform="translate(934.375,520.375) scale(3.9483333333333)"><circle cx="3" cy="3" r="3"/></g>
<g transform="translate(129.375,543.375) scale(3.9483333333333)"><circle cx="3" cy="3" r="3"/></g>
<g transform="translate(175.375,543.375) scale(3.9483333333333)"><circle cx="3" cy="3" r="3"/></g>
<g transform="translate(221.375,543.375) scale(3.9483333333333)"><circle cx="3" cy="3" r="3"/></g>
<g transform="translate(267.375,543.375) scale(3.9483333333333)"><circle cx="3" cy="3" r="3"/></g>
<g transform="translate(359.375,543.375) scale(3.9483333333333)"><circle cx="3" cy="3" r="3"/></g>
<g transform="translate(382.375,543.375) scale(3.9483333333333)"><circle cx="3" cy="3" r="3"/></g>
<g transform="translate(405.375,543.375) scale(3.9483333333333)"><circle cx="3" cy="3" r="3"/></g>
<g transform="translate(451.375,543.375) scale(3.9483333333333)"><circle cx="3" cy="3" r="3"/></g>
<g transform="translate(520.375,543.375) scale(3.9483333333333)"><circle cx="3" cy="3" r="3"/></g>
<g transform="translate(543.375,543.375) scale(3.9483333333333)"><circle cx="3" cy="3" r="3"/></g>
<g transform="translate(589.375,543.375) scale(3.9483333333333)"><circle cx="3" cy="3" r="3"/></g>
<g transform="translate(727.375,543.375) scale(3.9483333333333)"><circle cx="3" cy="3" r="3"/></g>
<g transform="translate(773.375,543.375) scale(3.9483333333333)"><circle cx="3" cy="3" r="3"/></g>
<g transform="translate(911.375,543.375) scale(3.9483333333333)"><circle cx="3" cy="3" r="3"/></g>
<g transform="translate(934.375,543.375) scale(3.9483333333333)"><circle cx="3" cy="3" r="3"/></g>
<g transform="translate(152.375,566.375) scale(3.9483333333333)"><circle cx="3" cy="3" r="3"/></g>
<g transform="translate(221.375,566.375) scale(3.9483333333333)"><circle cx="3" cy="3" r="3"/></g>
<g transform="translate(244.375,566.375) scale(3.9483333333333)"><circle cx="3" cy="3" r="3"/></g>
<g transform="translate(313.375,566.375) scale(3.9483333333333)"><circle cx="3" cy="3" r="3"/></g>
<g transform="translate(405.375,566.375) scale(3.9483333333333)"><circle cx="3" cy="3" r="3"/></g>
<g transform="translate(428.375,566.375) scale(3.9483333333333)"><circle cx="3" cy="3" r="3"/></g>
<g transform="translate(474.375,566.375) scale(3.9483333333333)"><circle cx="3" cy="3" r="3"/></g>
<g transform="translate(497.375,566.375) scale(3.9483333333333)"><circle cx="3" cy="3" r="3"/></g>
<g transform="translate(520.375,566.375) scale(3.9483333333333)"><circle cx="3" cy="3" r="3"/></g>
<g transform="translate(543.375,566.375) scale(3.9483333333333)"><circle cx="3" cy="3" r="3"/></g>
<g transform="translate(589.375,566.375) scale(3.9483333333333)"><circle cx="3" cy="3" r="3"/></g>
<g transform="translate(635.375,566.375) scale(3.9483333333333)"><circle cx="3" cy="3" r="3"/></g>
<g transform="translate(658.375,566.375) scale(3.9483333333333)"><circle cx="3" cy="3" r="3"/></g>
<g transform="translate(704.375,566.375) scale(3.9483333333333)"><circle cx="3" cy="3" r="3"/></g>
<g transform="translate(727.375,566.375) scale(3.9483333333333)"><circle cx="3" cy="3" r="3"/></g>
<g transform="translate(750.375,566.375) scale(3.9483333333333)"><circle cx="3" cy="3" r="3"/></g>
<g transform="translate(796.375,566.375) scale(3.9483333333333)"><circle cx="3" cy="3" r="3"/></g>
<g transform="translate(819.375,566.375) scale(3.9483333333333)"><circle cx="3" cy="3" r="3"/></g>
<g transform="translate(842.375,566.375) scale(3.9483333333333)"><circle cx="3" cy="3" r="3"/></g>
<g transform="translate(865.375,566.375) scale(3.9483333333333)"><circle cx="3" cy="3" r="3"/></g>
<g transform="translate(888.375,566.375) scale(3.9483333333333)"><circle cx="3" cy="3" r="3"/></g>
<g transform="translate(911.375,566.375) scale(3.9483333333333)"><circle cx="3" cy="3" r="3"/></g>
<g transform="translate(129.375,589.375) scale(3.9483333333333)"><circle cx="3" cy="3" r="3"/></g>
<g transform="translate(175.375,589.375) scale(3.9483333333333)"><circle cx="3" cy="3" r="3"/></g>
<g transform="translate(198.375,589.375) scale(3.9483333333333)"><circle cx="3" cy="3" r="3"/></g>
<g transform="translate(313.375,589.375) scale(3.9483333333333)"><circle cx="3" cy="3" r="3"/></g>
<g transform="translate(382.375,589.375) scale(3.9483333333333)"><circle cx="3" cy="3" r="3"/></g>
<g transform="translate(428.375,589.375) scale(3.9483333333333)"><circle cx="3" cy="3" r="3"/></g>
<g transform="translate(474.375,589.375) scale(3.9483333333333)"><circle cx="3" cy="3" r="3"/></g>
<g transform="translate(658.375,589.375) scale(3.9483333333333)"><circle cx="3" cy="3" r="3"/></g>
<g transform="translate(704.375,589.375) scale(3.9483333333333)"><circle cx="3" cy="3" r="3"/></g>
<g transform="translate(773.375,589.375) scale(3.9483333333333)"><circle cx="3" cy="3" r="3"/></g>
<g transform="translate(865.375,589.375) scale(3.9483333333333)"><circle cx="3" cy="3" r="3"/></g>
<g transform="translate(106.375,612.375) scale(3.9483333333333)"><circle cx="3" cy="3" r="3"/></g>
<g transform="translate(129.375,612.375) scale(3.9483333333333)"><circle cx="3" cy="3" r="3"/></g>
<g transform="translate(152.375,612.375) scale(3.9483333333333)"><circle cx="3" cy="3" r="3"/></g>
<g transform="translate(198.375,612.375) scale(3.9483333333333)"><circle cx="3" cy="3" r="3"/></g>
<g transform="translate(221.375,612.375) scale(3.9483333333333)"><circle cx="3" cy="3" r="3"/></g>
<g transform="translate(244.375,612.375) scale(3.9483333333333)"><circle cx="3" cy="3" r="3"/></g>
<g transform="translate(267.375,612.375) scale(3.9483333333333)"><circle cx="3" cy="3" r="3"/></g>
<g transform="translate(313.375,612.375) scale(3.9483333333333)"><circle cx="3" cy="3" r="3"/></g>
<g transform="translate(336.375,612.375) scale(3.9483333333333)"><circle cx="3" cy="3" r="3"/></g>
<g transform="translate(359.375,612.375) scale(3.9483333333333)"><circle cx="3" cy="3" r="3"/></g>
<g transform="translate(405.375,612.375) scale(3.9483333333333)"><circle cx="3" cy="3" r="3"/></g>
<g transform="translate(428.375,612.375) scale(3.9483333333333)"><circle cx="3" cy="3" r="3"/></g>
<g transform="translate(451.375,612.375) scale(3.9483333333333)"><circle cx="3" cy="3" r="3"/></g>
<g transform="translate(474.375,612.375) scale(3.9483333333333)"><circle cx="3" cy="3" r="3"/></g>
<g transform="translate(497.375,612.375) scale(3.9483333333333)"><circle cx="3" cy="3" r="3"/></g>
<g transform="translate(543.375,612.375) scale(3.9483333333333)"><circle cx="3" cy="3" r="3"/></g>
<g transform="translate(566.375,612.375) scale(3.9483333333333)"><circle cx="3" cy="3" r="3"/></g>
<g transform="translate(612.375,612.375) scale(3.9483333333333)"><circle cx="3" cy="3" r="3"/></g>
<g transform="translate(681.375,612.375) scale(3.9483333333333)"><circle cx="3" cy="3" r="3"/></g>
<g transform="translate(727.375,612.375) scale(3.9483333333333)"><circle cx="3" cy="3" r="3"/></g>
<g transform="translate(750.375,612.375) scale(3.9483333333333)"><circle cx="3" cy="3" r="3"/></g>
<g transform="translate(773.375,612.375) scale(3.9483333333333)"><circle cx="3" cy="3" r="3"/></g>
<g transform="translate(796.375,612.375) scale(3.9483333333333)"><circle cx="3" cy="3" r="3"/></g>
<g transform="translate(819.375,612.375) scale(3.9483333333333)"><circle cx="3" cy="3" r="3"/></g>
<g transform="translate(865.375,612.375) scale(3.9483333333333)"><circle cx="3" cy="3" r="3"/></g>
<g transform="translate(888.375,612.375) scale(3.9483333333333)"><circle cx="3" cy="3" r="3"/></g>
<g transform="translate(911.375,612.375) scale(3.9483333333333)"><circle cx="3" cy="3" r="3"/></g>
<g transform="translate(106.375,635.375) scale(3.9483333333333)"><circle cx="3" cy="3" r="3"/></g>
<g transform="translate(129.375,635.375) scale(3.9483333333333)"><circle cx="3" cy="3" r="3"/></g>
<g transform="translate(175.375,635.375) scale(3.9483333333333)"><circle cx="3" cy="3" r="3"/></g>
<g transform="translate(267.375,635.375) scale(3.9483333333333)"><circle cx="3" cy="3" r="3"/></g>
<g transform="translate(290.375,635.375) scale(3.9483333333333)"><circle cx="3" cy="3" r="3"/></g>
<g transform="translate(336.375,635.375) scale(3.9483333333333)"><circle cx="3" cy="3" r="3"/></g>
<g transform="translate(382.375,635.375) scale(3.9483333333333)"><circle cx="3" cy="3" r="3"/></g>
<g transform="translate(497.375,635.375) scale(3.9483333333333)"><circle cx="3" cy="3" r="3"/></g>
<g transform="translate(589.375,635.375) scale(3.9483333333333)"><circle cx="3" cy="3" r="3"/></g>
<g transform="translate(612.375,635.375) scale(3.9483333333333)"><circle cx="3" cy="3" r="3"/></g>
<g transform="translate(635.375,635.375) scale(3.9483333333333)"><circle cx="3" cy="3" r="3"/></g>
<g transform="translate(704.375,635.375) scale(3.9483333333333)"><circle cx="3" cy="3" r="3"/></g>
<g transform="translate(727.375,635.375) scale(3.9483333333333)"><circle cx="3" cy="3" r="3"/></g>
<g transform="translate(796.375,635.375) scale(3.9483333333333)"><circle cx="3" cy="3" r="3"/></g>
<g transform="translate(819.375,635.375) scale(3.9483333333333)"><circle cx="3" cy="3" r="3"/></g>
<g transform="translate(865.375,635.375) scale(3.9483333333333)"><circle cx="3" cy="3" r="3"/></g>
<g transform="translate(129.375,658.375) scale(3.9483333333333)"><circle cx="3" cy="3" r="3"/></g>
<g transform="translate(221.375,658.375) scale(3.9483333333333)"><circle cx="3" cy="3" r="3"/></g>
<g transform="translate(244.375,658.375) scale(3.9483333333333)"><circle cx="3" cy="3" r="3"/></g>
<g transform="translate(359.375,658.375) scale(3.9483333333333)"><circle cx="3" cy="3" r="3"/></g>
<g transform="translate(382.375,658.375) scale(3.9483333333333)"><circle cx="3" cy="3" r="3"/></g>
<g transform="translate(405.375,658.375) scale(3.9483333333333)"><circle cx="3" cy="3" r="3"/></g>
<g transform="translate(428.375,658.375) scale(3.9483333333333)"><circle cx="3" cy="3" r="3"/></g>
<g transform="translate(451.375,658.375) scale(3.9483333333333)"><circle cx="3" cy="3" r="3"/></g>
<g transform="translate(474.375,658.375) scale(3.9483333333333)"><circle cx="3" cy="3" r="3"/></g>
<g transform="translate(520.375,658.375) scale(3.9483333333333)"><circle cx="3" cy="3" r="3"/></g>
<g transform="translate(543.375,658.375) scale(3.9483333333333)"><circle cx="3" cy="3" r="3"/></g>
<g transform="translate(727.375,658.375) scale(3.9483333333333)"><circle cx="3" cy="3" r="3"/></g>
<g transform="translate(796.375,658.375) scale(3.9483333333333)"><circle cx="3" cy="3" r="3"/></g>
<g transform="translate(888.375,658.375) scale(3.9483333333333)"><circle cx="3" cy="3" r="3"/></g>
<g transform="translate(934.375,658.375) scale(3.9483333333333)"><circle cx="3" cy="3" r="3"/></g>
<g transform="translate(106.375,681.375) scale(3.9483333333333)"><circle cx="3" cy="3" r="3"/></g>
<g transform="translate(152.375,681.375) scale(3.9483333333333)"><circle cx="3" cy="3" r="3"/></g>
<g transform="translate(175.375,681.375) scale(3.9483333333333)"><circle cx="3" cy="3" r="3"/></g>
<g transform="translate(221.375,681.375) scale(3.9483333333333)"><circle cx="3" cy="3" r="3"/></g>
<g transform="translate(313.375,681.375) scale(3.9483333333333)"><circle cx="3" cy="3" r="3"/></g>
<g transform="translate(336.375,681.375) scale(3.9483333333333)"><circle cx="3" cy="3" r="3"/></g>
<g transform="translate(359.375,681.375) scale(3.9483333333333)"><circle cx="3" cy="3" r="3"/></g>
<g transform="translate(497.375,681.375) scale(3.9483333333333)"><circle cx="3" cy="3" r="3"/></g>
<g transform="translate(520.375,681.375) scale(3.9483333333333)"><circle cx="3" cy="3" r="3"/></g>
<g transform="translate(543.375,681.375) scale(3.9483333333333)"><circle cx="3" cy="3" r="3"/></g>
<g transform="translate(589.375,681.375) scale(3.9483333333333)"><circle cx="3" cy="3" r="3"/></g>
<g transform="translate(612.375,681.375) scale(3.9483333333333)"><circle cx="3" cy="3" r="3"/></g>
<g transform="translate(658.375,681.375) scale(3.9483333333333)"><circle cx="3" cy="3" r="3"/></g>
<g transform="translate(750.375,681.375) scale(3.9483333333333)"><circle cx="3" cy="3" r="3"/></g>
<g transform="translate(796.375,681.375) scale(3.9483333333333)"><circle cx="3" cy="3" r="3"/></g>
<g transform="translate(842.375,681.375) scale(3.9483333333333)"><circle cx="3" cy="3" r="3"/></g>
<g transform="translate(911.375,681.375) scale(3.9483333333333)"><circle cx="3" cy="3" r="3"/></g>
<g transform="translate(106.375,704.375) scale(3.9483333333333)"><circle cx="3" cy="3" r="3"/></g>
<g transform="translate(152.375,704.375) scale(3.9483333333333)"><circle cx="3" cy="3" r="3"/></g>
<g transform="translate(198.375,704.375) scale(3.9483333333333)"><circle cx="3" cy="3" r="3"/></g>
<g transform="translate(244.375,704.375) scale(3.9483333333333)"><circle cx="3" cy="3" r="3"/></g>
<g transform="translate(267.375,704.375) scale(3.9483333333333)"><circle cx="3" cy="3" r="3"/></g>
<g transform="translate(290.375,704.375) scale(3.9483333333333)"><circle cx="3" cy="3" r="3"/></g>
<g transform="translate(405.375,704.375) scale(3.9483333333333)"><circle cx="3" cy="3" r="3"/></g>
<g transform="translate(428.375,704.375) scale(3.9483333333333)"><circle cx="3" cy="3" r="3"/></g>
<g transform="translate(451.375,704.375) scale(3.9483333333333)"><circle cx="3" cy="3" r="3"/></g>
<g transform="translate(474.375,704.375) scale(3.9483333333333)"><circle cx="3" cy="3" r="3"/></g>
<g transform="translate(497.375,704.375) scale(3.9483333333333)"><circle cx="3" cy="3" r="3"/></g>
<g transform="translate(681.375,704.375) scale(3.9483333333333)"><circle cx="3" cy="3" r="3"/></g>
<g transform="translate(704.375,704.375) scale(3.9483333333333)"><circle cx="3" cy="3" r="3"/></g>
<g transform="translate(727.375,704.375) scale(3.9483333333333)"><circle cx="3" cy="3" r="3"/></g>
<g transform="translate(750.375,704.375) scale(3.9483333333333)"><circle cx="3" cy="3" r="3"/></g>
<g transform="translate(773.375,704.375) scale(3.9483333333333)"><circle cx="3" cy="3" r="3"/></g>
<g transform="translate(796.375,704.375) scale(3.9483333333333)"><circle cx="3" cy="3" r="3"/></g>
<g transform="translate(819.375,704.375) scale(3.9483333333333)"><circle cx="3" cy="3" r="3"/></g>
<g transform="translate(865.375,704.375) scale(3.9483333333333)"><circle cx="3" cy="3" r="3"/></g>
<g transform="translate(934.375,704.375) scale(3.9483333333333)"><circle cx="3" cy="3" r="3"/></g>
<g transform="translate(106.375,727.375) scale(3.9483333333333)"><circle cx="3" cy="3" r="3"/></g>
<g transform="translate(175.375,727.375) scale(3.9483333333333)"><circle cx="3" cy="3" r="3"/></g>
<g transform="translate(198.375,727.375) scale(3.9483333333333)"><circle cx="3" cy="3" r="3"/></g>
<g transform="translate(221.375,727.375) scale(3.9483333333333)"><circle cx="3" cy="3" r="3"/></g>
<g transform="translate(267.375,727.375) scale(3.9483333333333)"><circle cx="3" cy="3" r="3"/></g>
<g transform="translate(290.375,727.375) scale(3.9483333333333)"><circle cx="3" cy="3" r="3"/></g>
<g transform="translate(336.375,727.375) scale(3.9483333333333)"><circle cx="3" cy="3" r="3"/></g>
<g transform="translate(359.375,727.375) scale(3.9483333333333)"><circle cx="3" cy="3" r="3"/></g>
<g transform="translate(451.375,727.375) scale(3.9483333333333)"><circle cx="3" cy="3" r="3"/></g>
<g transform="translate(474.375,727.375) scale(3.9483333333333)"><circle cx="3" cy="3" r="3"/></g>
<g transform="translate(520.375,727.375) scale(3.9483333333333)"><circle cx="3" cy="3" r="3"/></g>
<g transform="translate(543.375,727.375) scale(3.9483333333333)"><circle cx="3" cy="3" r="3"/></g>
<g transform="translate(589.375,727.375) scale(3.9483333333333)"><circle cx="3" cy="3" r="3"/></g>
<g transform="translate(658.375,727.375) scale(3.9483333333333)"><circle cx="3" cy="3" r="3"/></g>
<g transform="translate(819.375,727.375) scale(3.9483333333333)"><circle cx="3" cy="3" r="3"/></g>
<g transform="translate(842.375,727.375) scale(3.9483333333333)"><circle cx="3" cy="3" r="3"/></g>
<g transform="translate(888.375,727.375) scale(3.9483333333333)"><circle cx="3" cy="3" r="3"/></g>
<g transform="translate(911.375,727.375) scale(3.9483333333333)"><circle cx="3" cy="3" r="3"/></g>
<g transform="translate(934.375,727.375) scale(3.9483333333333)"><circle cx="3" cy="3" r="3"/></g>
<g transform="translate(106.375,750.375) scale(3.9483333333333)"><circle cx="3" cy="3" r="3"/></g>
<g transform="translate(152.375,750.375) scale(3.9483333333333)"><circle cx="3" cy="3" r="3"/></g>
<g transform="translate(175.375,750.375) scale(3.9483333333333)"><circle cx="3" cy="3" r="3"/></g>
<g transform="translate(244.375,750.375) scale(3.9483333333333)"><circle cx="3" cy="3" r="3"/></g>
<g transform="translate(267.375,750.375) scale(3.9483333333333)"><circle cx="3" cy="3" r="3"/></g>
<g transform="translate(290.375,750.375) scale(3.9483333333333)"><circle cx="3" cy="3" r="3"/></g>
<g transform="translate(359.375,750.375) scale(3.9483333333333)"><circle cx="3" cy="3" r="3"/></g>
<g transform="translate(382.375,750.375) scale(3.9483333333333)"><circle cx="3" cy="3" r="3"/></g>
<g transform="translate(474.375,750.375) scale(3.9483333333333)"><circle cx="3" cy="3" r="3"/></g>
<g transform="translate(543.375,750.375) scale(3.9483333333333)"><circle cx="3" cy="3" r="3"/></g>
<g transform="translate(589.375,750.375) scale(3.9483333333333)"><circle cx="3" cy="3" r="3"/></g>
<g transform="translate(612.375,750.375) scale(3.9483333333333)"><circle cx="3" cy="3" r="3"/></g>
<g transform="translate(681.375,750.375) scale(3.9483333333333)"><circle cx="3" cy="3" r="3"/></g>
<g transform="translate(704.375,750.375) scale(3.9483333333333)"><circle cx="3" cy="3" r="3"/></g>
<g transform="translate(727.375,750.375) scale(3.9483333333333)"><circle cx="3" cy="3" r="3"/></g>
<g transform="translate(750.375,750.375) scale(3.9483333333333)"><circle cx="3" cy="3" r="3"/></g>
<g transform="translate(773.375,750.375) scale(3.9483333333333)"><circle cx="3" cy="3" r="3"/></g>
<g transform="translate(796.375,750.375) scale(3.9483333333333)"><circle cx="3" cy="3" r="3"/></g>
<g transform="translate(819.375,750.375) scale(3.9483333333333)"><circle cx="3" cy="3" r="3"/></g>
<g transform="translate(842.375,750.375) scale(3.9483333333333)"><circle cx="3" cy="3" r="3"/></g>
<g transform="translate(865.375,750.375) scale(3.9483333333333)"><circle cx="3" cy="3" r="3"/></g>
<g transform="translate(911.375,750.375) scale(3.9483333333333)"><circle cx="3" cy="3" r="3"/></g>
<g transform="translate(934.375,750.375) scale(3.9483333333333)"><circle cx="3" cy="3" r="3"/></g>
<g transform="translate(290.375,773.375) scale(3.9483333333333)"><circle cx="3" cy="3" r="3"/></g>
<g transform="translate(313.375,773.375) scale(3.9483333333333)"><circle cx="3" cy="3" r="3"/></g>
<g transform="translate(382.375,773.375) scale(3.9483333333333)"><circle cx="3" cy="3" r="3"/></g>
<g transform="translate(428.375,773.375) scale(3.9483333333333)"><circle cx="3" cy="3" r="3"/></g>
<g transform="translate(497.375,773.375) scale(3.9483333333333)"><circle cx="3" cy="3" r="3"/></g>
<g transform="translate(520.375,773.375) scale(3.9483333333333)"><circle cx="3" cy="3" r="3"/></g>
<g transform="translate(566.375,773.375) scale(3.9483333333333)"><circle cx="3" cy="3" r="3"/></g>
<g transform="translate(589.375,773.375) scale(3.9483333333333)"><circle cx="3" cy="3" r="3"/></g>
<g transform="translate(612.375,773.375) scale(3.9483333333333)"><circle cx="3" cy="3" r="3"/></g>
<g transform="translate(635.375,773.375) scale(3.9483333333333)"><circle cx="3" cy="3" r="3"/></g>
<g transform="translate(658.375,773.375) scale(3.9483333333333)"><circle cx="3" cy="3" r="3"/></g>
<g transform="translate(750.375,773.375) scale(3.9483333333333)"><circle cx="3" cy="3" r="3"/></g>
<g transform="translate(842.375,773.375) scale(3.9483333333333)"><circle cx="3" cy="3" r="3"/></g>
<g transform="translate(865.375,773.375) scale(3.9483333333333)"><circle cx="3" cy="3" r="3"/></g>
<g transform="translate(888.375,773.375) scale(3.9483333333333)"><circle cx="3" cy="3" r="3"/></g>
<g transform="translate(934.375,773.375) scale(3.9483333333333)"><circle cx="3" cy="3" r="3"/></g>
<g transform="translate(313.375,796.375) scale(3.9483333333333)"><circle cx="3" cy="3" r="3"/></g>
<g transform="translate(382.375,796.375) scale(3.9483333333333)"><circle cx="3" cy="3" r="3"/></g>
<g transform="translate(428.375,796.375) scale(3.9483333333333)"><circle cx="3" cy="3" r="3"/></g>
<g transform="translate(451.375,796.375) scale(3.9483333333333)"><circle cx="3" cy="3" r="3"/></g>
<g transform="translate(497.375,796.375) scale(3.9483333333333)"><circle cx="3" cy="3" r="3"/></g>
<g transform="translate(566.375,796.375) scale(3.9483333333333)"><circle cx="3" cy="3" r="3"/></g>
<g transform="translate(612.375,796.375) scale(3.9483333333333)"><circle cx="3" cy="3" r="3"/></g>
<g transform="translate(658.375,796.375) scale(3.9483333333333)"><circle cx="3" cy="3" r="3"/></g>
<g transform="translate(681.375,796.375) scale(3.9483333333333)"><circle cx="3" cy="3" r="3"/></g>
<g transform="translate(704.375,796.375) scale(3.9483333333333)"><circle cx="3" cy="3" r="3"/></g>
<g transform="translate(750.375,796.375) scale(3.9483333333333)"><circle cx="3" cy="3" r="3"/></g>
<g transform="translate(796.375,796.375) scale(3.9483333333333)"><circle cx="3" cy="3" r="3"/></g>
<g transform="translate(842.375,796.375) scale(3.9483333333333)"><circle cx="3" cy="3" r="3"/></g>
<g transform="translate(865.375,796.375) scale(3.9483333333333)"><circle cx="3" cy="3" r="3"/></g>
<g transform="translate(911.375,796.375) scale(3.9483333333333)"><circle cx="3" cy="3" r="3"/></g>
<g transform="translate(934.375,796.375) scale(3.9483333333333)"><circle cx="3" cy="3" r="3"/></g>
<g transform="translate(313.375,819.375) scale(3.9483333333333)"><circle cx="3" cy="3" r="3"/></g>
<g transform="translate(359.375,819.375) scale(3.9483333333333)"><circle cx="3" cy="3" r="3"/></g>
<g transform="translate(382.375,819.375) scale(3.9483333333333)"><circle cx="3" cy="3" r="3"/></g>
<g transform="translate(451.375,819.375) scale(3.9483333333333)"><circle cx="3" cy="3" r="3"/></g>
<g transform="translate(474.375,819.375) scale(3.9483333333333)"><circle cx="3" cy="3" r="3"/></g>
<g transform="translate(543.375,819.375) scale(3.9483333333333)"><circle cx="3" cy="3" r="3"/></g>
<g transform="translate(566.375,819.375) scale(3.9483333333333)"><circle cx="3" cy="3" r="3"/></g>
<g transform="translate(635.375,819.375) scale(3.9483333333333)"><circle cx="3" cy="3" r="3"/></g>
<g transform="translate(727.375,819.375) scale(3.9483333333333)"><circle cx="3" cy="3" r="3"/></g>
<g transform="translate(750.375,819.375) scale(3.9483333333333)"><circle cx="3" cy="3" r="3"/></g>
<g transform="translate(842.375,819.375) scale(3.9483333333333)"><circle cx="3" cy="3" r="3"/></g>
<g transform="translate(290.375,842.375) scale(3.9483333333333)"><circle cx="3" cy="3" r="3"/></g>
<g transform="translate(336.375,842.375) scale(3.9483333333333)"><circle cx="3" cy="3" r="3"/></g>
<g transform="translate(359.375,842.375) scale(3.9483333333333)"><circle cx="3" cy="3" r="3"/></g>
<g transform="translate(405.375,842.375) scale(3.9483333333333)"><circle cx="3" cy="3" r="3"/></g>
<g transform="translate(451.375,842.375) scale(3.9483333333333)"><circle cx="3" cy="3" r="3"/></g>
<g transform="translate(497.375,842.375) scale(3.9483333333333)"><circle cx="3" cy="3" r="3"/></g>
<g transform="translate(520.375,842.375) scale(3.9483333333333)"><circle cx="3" cy="3" r="3"/></g>
<g transform="translate(566.375,842.375) scale(3.9483333333333)"><circle cx="3" cy="3" r="3"/></g>
<g transform="translate(589.375,842.375) scale(3.9483333333333)"><circle cx="3" cy="3" r="3"/></g>
<g transform="translate(612.375,842.375) scale(3.9483333333333)"><circle cx="3" cy="3" r="3"/></g>
<g transform="translate(658.375,842.375) scale(3.9483333333333)"><circle cx="3" cy="3" r="3"/></g>
<g transform="translate(681.375,842.375) scale(3.9483333333333)"><circle cx="3" cy="3" r="3"/></g>
<g transform="translate(727.375,842.375) scale(3.9483333333333)"><circle cx="3" cy="3" r="3"/></g>
<g transform="translate(750.375,842.375) scale(3.9483333333333)"><circle cx="3" cy="3" r="3"/></g>
<g transform="translate(773.375,842.375) scale(3.9483333333333)"><circle cx="3" cy="3" r="3"/></g>
<g transform="translate(796.375,842.375) scale(3.9483333333333)"><circle cx="3" cy="3" r="3"/></g>
<g transform="translate(819.375,842.375) scale(3.9483333333333)"><circle cx="3" cy="3" r="3"/></g>
<g transform="translate(842.375,842.375) scale(3.9483333333333)"><circle cx="3" cy="3" r="3"/></g>
<g transform="translate(865.375,842.375) scale(3.9483333333333)"><circle cx="3" cy="3" r="3"/></g>
<g transform="translate(888.375,842.375) scale(3.9483333333333)"><circle cx="3" cy="3" r="3"/></g>
<g transform="translate(911.375,842.375) scale(3.9483333333333)"><circle cx="3" cy="3" r="3"/></g>
<g transform="translate(934.375,842.375) scale(3.9483333333333)"><circle cx="3" cy="3" r="3"/></g>
<g transform="translate(290.375,865.375) scale(3.9483333333333)"><circle cx="3" cy="3" r="3"/></g>
<g transform="translate(313.375,865.375) scale(3.9483333333333)"><circle cx="3" cy="3" r="3"/></g>
<g transform="translate(336.375,865.375) scale(3.9483333333333)"><circle cx="3" cy="3" r="3"/></g>
<g transform="translate(359.375,865.375) scale(3.9483333333333)"><circle cx="3" cy="3" r="3"/></g>
<g transform="translate(428.375,865.375) scale(3.9483333333333)"><circle cx="3" cy="3" r="3"/></g>
<g transform="translate(474.375,865.375) scale(3.9483333333333)"><circle cx="3" cy="3" r="3"/></g>
<g transform="translate(704.375,865.375) scale(3.9483333333333)"><circle cx="3" cy="3" r="3"/></g>
<g transform="translate(727.375,865.375) scale(3.9483333333333)"><circle cx="3" cy="3" r="3"/></g>
<g transform="translate(773.375,865.375) scale(3.9483333333333)"><circle cx="3" cy="3" r="3"/></g>
<g transform="translate(796.375,865.375) scale(3.9483333333333)"><circle cx="3" cy="3" r="3"/></g>
<g transform="translate(865.375,865.375) scale(3.9483333333333)"><circle cx="3" cy="3" r="3"/></g>
<g transform="translate(911.375,865.375) scale(3.9483333333333)"><circle cx="3" cy="3" r="3"/></g>
<g transform="translate(934.375,865.375) scale(3.9483333333333)"><circle cx="3" cy="3" r="3"/></g>
<g transform="translate(290.375,888.375) scale(3.9483333333333)"><circle cx="3" cy="3" r="3"/></g>
<g transform="translate(313.375,888.375) scale(3.9483333333333)"><circle cx="3" cy="3" r="3"/></g>
<g transform="translate(336.375,888.375) scale(3.9483333333333)"><circle cx="3" cy="3" r="3"/></g>
<g transform="translate(382.375,888.375) scale(3.9483333333333)"><circle cx="3" cy="3" r="3"/></g>
<g transform="translate(428.375,888.375) scale(3.9483333333333)"><circle cx="3" cy="3" r="3"/></g>
<g transform="translate(474.375,888.375) scale(3.9483333333333)"><circle cx="3" cy="3" r="3"/></g>
<g transform="translate(497.375,888.375) scale(3.9483333333333)"><circle cx="3" cy="3" r="3"/></g>
<g transform="translate(520.375,888.375) scale(3.9483333333333)"><circle cx="3" cy="3" r="3"/></g>
<g transform="translate(566.375,888.375) scale(3.9483333333333)"><circle cx="3" cy="3" r="3"/></g>
<g transform="translate(635.375,888.375) scale(3.9483333333333)"><circle cx="3" cy="3" r="3"/></g>
<g transform="translate(658.375,888.375) scale(3.9483333333333)"><circle cx="3" cy="3" r="3"/></g>
<g transform="translate(727.375,888.375) scale(3.9483333333333)"><circle cx="3" cy="3" r="3"/></g>
<g transform="translate(750.375,888.375) scale(3.9483333333333)"><circle cx="3" cy="3" r="3"/></g>
<g transform="translate(819.375,888.375) scale(3.9483333333333)"><circle cx="3" cy="3" r="3"/></g>
<g transform="translate(888.375,888.375) scale(3.9483333333333)"><circle cx="3" cy="3" r="3"/></g>
<g transform="translate(934.375,888.375) scale(3.9483333333333)"><circle cx="3" cy="3" r="3"/></g>
<g transform="translate(336.375,911.375) scale(3.9483333333333)"><circle cx="3" cy="3" r="3"/></g>
<g transform="translate(359.375,911.375) scale(3.9483333333333)"><circle cx="3" cy="3" r="3"/></g>
<g transform="translate(405.375,911.375) scale(3.9483333333333)"><circle cx="3" cy="3" r="3"/></g>
<g transform="translate(428.375,911.375) scale(3.9483333333333)"><circle cx="3" cy="3" r="3"/></g>
<g transform="translate(474.375,911.375) scale(3.9483333333333)"><circle cx="3" cy="3" r="3"/></g>
<g transform="translate(497.375,911.375) scale(3.9483333333333)"><circle cx="3" cy="3" r="3"/></g>
<g transform="translate(520.375,911.375) scale(3.9483333333333)"><circle cx="3" cy="3" r="3"/></g>
<g transform="translate(566.375,911.375) scale(3.9483333333333)"><circle cx="3" cy="3" r="3"/></g>
<g transform="translate(612.375,911.375) scale(3.9483333333333)"><circle cx="3" cy="3" r="3"/></g>
<g transform="translate(635.375,911.375) scale(3.9483333333333)"><circle cx="3" cy="3" r="3"/></g>
<g transform="translate(681.375,911.375) scale(3.9483333333333)"><circle cx="3" cy="3" r="3"/></g>
<g transform="translate(704.375,911.375) scale(3.9483333333333)"><circle cx="3" cy="3" r="3"/></g>
<g transform="translate(727.375,911.375) scale(3.9483333333333)"><circle cx="3" cy="3" r="3"/></g>
<g transform="translate(750.375,911.375) scale(3.9483333333333)"><circle cx="3" cy="3" r="3"/></g>
<g transform="translate(773.375,911.375) scale(3.9483333333333)"><circle cx="3" cy="3" r="3"/></g>
<g transform="translate(796.375,911.375) scale(3.9483333333333)"><circle cx="3" cy="3" r="3"/></g>
<g transform="translate(934.375,911.375) scale(3.9483333333333)"><circle cx="3" cy="3" r="3"/></g>
<g transform="translate(313.375,934.375) scale(3.9483333333333)"><circle cx="3" cy="3" r="3"/></g>
<g transform="translate(336.375,934.375) scale(3.9483333333333)"><circle cx="3" cy="3" r="3"/></g>
<g transform="translate(382.375,934.375) scale(3.9483333333333)"><circle cx="3" cy="3" r="3"/></g>
<g transform="translate(451.375,934.375) scale(3.9483333333333)"><circle cx="3" cy="3" r="3"/></g>
<g transform="translate(497.375,934.375) scale(3.9483333333333)"><circle cx="3" cy="3" r="3"/></g>
<g transform="translate(589.375,934.375) scale(3.9483333333333)"><circle cx="3" cy="3" r="3"/></g>
<g transform="translate(612.375,934.375) scale(3.9483333333333)"><circle cx="3" cy="3" r="3"/></g>
<g transform="translate(635.375,934.375) scale(3.9483333333333)"><circle cx="3" cy="3" r="3"/></g>
<g transform="translate(658.375,934.375) scale(3.9483333333333)"><circle cx="3" cy="3" r="3"/></g>
<g transform="translate(704.375,934.375) scale(3.9483333333333)"><circle cx="3" cy="3" r="3"/></g>
<g transform="translate(796.375,934.375) scale(3.9483333333333)"><circle cx="3" cy="3" r="3"/></g>
<g transform="translate(819.375,934.375) scale(3.9483333333333)"><circle cx="3" cy="3" r="3"/></g>
<g transform="translate(865.375,934.375) scale(3.9483333333333)"><circle cx="3" cy="3" r="3"/></g>
<g transform="translate(888.375,934.375) scale(3.9483333333333)"><circle cx="3" cy="3" r="3"/></g>
<g transform="translate(911.375,934.375) scale(3.9483333333333)"><circle cx="3" cy="3" r="3"/></g>
<g transform="translate(934.375,934.375) scale(3.9483333333333)"><circle cx="3" cy="3" r="3"/></g>
</g><g ><g transform="translate(106.375,106.375)"  fill="#000000"><g transform="scale(11.5)"><path d="M4.5,14h5.1C12,14,14,12,14,9.6V4.5C14,2,12,0,9.5,0H4.4C2,0,0,2,0,4.4v5.1C0,12,2,14,4.5,14z M12,4.8v4.4 c0,1.5-1.3,2.8-2.8,2.8H4.8C3.2,12,2,10.8,2,9.2V4.8C2,3.3,3.3,2,4.8,2h4.4C10.8,2,12,3.2,12,4.8z"/></g></g>
<g transform="translate(796.375,106.375)"  fill="#000000"><g transform="scale(11.5)"><path d="M4.5,14h5.1C12,14,14,12,14,9.6V4.5C14,2,12,0,9.5,0H4.4C2,0,0,2,0,4.4v5.1C0,12,2,14,4.5,14z M12,4.8v4.4 c0,1.5-1.3,2.8-2.8,2.8H4.8C3.2,12,2,10.8,2,9.2V4.8C2,3.3,3.3,2,4.8,2h4.4C10.8,2,12,3.2,12,4.8z"/></g></g>
<g transform="translate(106.375,796.375)"  fill="#000000"><g transform="scale(11.5)"><path d="M4.5,14h5.1C12,14,14,12,14,9.6V4.5C14,2,12,0,9.5,0H4.4C2,0,0,2,0,4.4v5.1C0,12,2,14,4.5,14z M12,4.8v4.4 c0,1.5-1.3,2.8-2.8,2.8H4.8C3.2,12,2,10.8,2,9.2V4.8C2,3.3,3.3,2,4.8,2h4.4C10.8,2,12,3.2,12,4.8z"/></g></g>
<g transform="translate(152.375,152.375)"  fill="#000000"><g transform="scale(11.5)"><path d="M6,1.7v2.7C6,5.2,5.2,6,4.3,6H1.7C0.7,6,0,5.3,0,4.3V1.7C0,0.8,0.8,0,1.7,0h2.7C5.3,0,6,0.7,6,1.7z"/></g></g>
<g transform="translate(842.375,152.375)"  fill="#000000"><g transform="scale(11.5)"><path d="M6,1.7v2.7C6,5.2,5.2,6,4.3,6H1.7C0.7,6,0,5.3,0,4.3V1.7C0,0.8,0.8,0,1.7,0h2.7C5.3,0,6,0.7,6,1.7z"/></g></g>
<g transform="translate(152.375,842.375)"  fill="#000000"><g transform="scale(11.5)"><path d="M6,1.7v2.7C6,5.2,5.2,6,4.3,6H1.7C0.7,6,0,5.3,0,4.3V1.7C0,0.8,0.8,0,1.7,0h2.7C5.3,0,6,0.7,6,1.7z"/></g></g></g>
<text fill="#FFFFFF" font-family="Arial, Helvetica, sans-serif" font-size="127.90327380952px" text-anchor="middle" x="531.875" y="156.00085851648" transform="translate(0,1019.4270833333)">USDC arbitrum</text></svg>